<svg id="Capa_1" enable-background="new 0 0 511.986 511.986" height="512" viewBox="0 0 511.986 511.986" width="512" xmlns="http://www.w3.org/2000/svg"><g><path d="m486.072 301.914c14.289 0 25.914-11.625 25.914-25.915s-11.625-25.915-25.914-25.915h-.056v-127.171c0-6.014-2.343-11.669-6.597-15.923l-38.12-38.12c-2.93-2.929-7.678-2.929-10.607 0s-2.929 7.678 0 10.606l38.12 38.12c1.422 1.421 2.204 3.31 2.204 5.317v127.172h-15.04v-120.952c0-1.989-.79-3.897-2.197-5.304l-93.995-93.985c-2.932-2.937-2.932-7.715-.004-10.648 1.42-1.421 3.313-2.203 5.326-2.203 2.003 0 3.895.786 5.316 2.203l39.39 39.4c2.929 2.929 7.676 2.93 10.606.001 2.929-2.929 2.93-7.677.001-10.607l-39.399-39.41c-4.264-4.248-9.915-6.587-15.914-6.587-6.021 0-11.68 2.343-15.938 6.601-2.931 2.936-4.859 6.493-5.83 10.25-14.785-8.569-31.624-13.141-49.169-13.141-26.256 0-50.94 10.225-69.506 28.791-2.929 2.929-2.929 7.678 0 10.606l128.404 128.405c1.465 1.464 3.385 2.197 5.304 2.197s3.839-.732 5.304-2.197c18.565-18.565 28.79-43.25 28.79-69.506 0-7.831-.917-15.519-2.685-22.949l51.196 51.191v117.845h-82.726c-14.289 0-25.914 11.625-25.914 25.915s11.625 25.915 25.914 25.915h82.727v80.161l-55.108-31.205c-5.621-3.191-12.019-4.877-18.502-4.877h-107.17v-11.705c32.166-10.663 55.443-41.007 55.443-76.705 0-4.142-3.357-7.5-7.5-7.5h-13.354v-52.182c0-25.55-20.786-46.336-46.336-46.336s-46.337 20.787-46.337 46.336v13.18c0 4.142 3.358 7.5 7.5 7.5h24.725c4.142 0 7.5-3.358 7.5-7.5v-13.18c0-3.646 2.966-6.612 6.612-6.612s6.612 2.966 6.612 6.612v52.182h-93.532c-4.142 0-7.5 3.358-7.5 7.5 0 35.694 23.274 66.037 55.436 76.702v11.706h-57.625l-80.889-157.967c-4.569-8.927-12.342-15.541-21.887-18.623-9.548-3.082-19.719-2.26-28.637 2.313-18.425 9.431-25.741 32.096-16.308 50.525l83.07 162.23c1.888 3.688 6.408 5.145 10.094 3.257 3.687-1.888 5.145-6.407 3.257-10.094l-83.069-162.228c-2.744-5.36-3.237-11.468-1.388-17.198s5.819-10.396 11.184-13.142c5.354-2.746 11.459-3.239 17.188-1.388 5.731 1.85 10.399 5.822 13.144 11.184l82.98 162.05c1.283 2.505 3.861 4.082 6.676 4.082h220.11c3.893 0 7.729 1.011 11.104 2.926l93.002 52.662c5.24 2.964 9.012 7.792 10.618 13.593 1.607 5.802.858 11.882-2.113 17.127-3.991 7.058-11.518 11.442-19.642 11.442-3.859 0-7.687-1.014-11.074-2.937l-86.11-48.76c-1.127-.638-2.4-.974-3.695-.974h-230.57c-5.389 0-10.606-1.934-14.689-5.446-3.141-2.701-7.876-2.345-10.577.795-2.701 3.141-2.345 7.876.795 10.577 6.804 5.852 15.494 9.074 24.471 9.074h40.096l-30.094 78.738c-.881 2.306-.571 4.897.828 6.93s3.709 3.248 6.178 3.248h172.941c2.468 0 4.778-1.214 6.178-3.248s1.709-4.625.828-6.93l-30.094-78.738h61.731l83.497 47.28v34.14c0 4.142 3.357 7.5 7.5 7.5h30.04c4.143 0 7.5-3.358 7.5-7.5v-38.922c2.736-2.56 5.121-5.532 7.015-8.881 4.944-8.727 6.192-18.856 3.516-28.521-1.875-6.765-5.521-12.731-10.53-17.397v-106.858zm-127.937-144.556-117.328-117.328c14.949-12.514 33.632-19.328 53.362-19.328 22.249 0 43.166 8.665 58.898 24.397 30.69 30.689 32.378 79.567 5.068 112.259zm-109.685 18.933c-11.917 0-21.612 9.695-21.612 21.612v5.68h-9.725v-5.68c0-17.279 14.058-31.336 31.337-31.336 17.278 0 31.336 14.058 31.336 31.336v52.182h-9.724v-52.182c0-11.917-9.695-21.612-21.612-21.612zm-78.995 88.794h130.759c-3.734 32.766-31.631 58.304-65.38 58.304s-61.645-25.538-65.379-58.304zm55.011 72.616c3.398.438 6.854.688 10.369.688 3.512 0 6.966-.25 10.361-.687v8.291h-20.73zm-67.676 157.288 28.25-73.914h94.65l28.25 73.914zm190.545-218.989c0-6.018 4.896-10.915 10.914-10.915h127.822c6.018 0 10.914 4.896 10.914 10.915s-4.896 10.915-10.914 10.915h-127.821c-6.018-.001-10.915-4.897-10.915-10.915zm123.681 218.993h-15.04v-21.52c1.445.171 2.9.27 4.359.27 3.668 0 7.256-.555 10.681-1.572zm0-95.908-15.04-8.516v-88.654h15.04z"/></g></svg>