<svg id="Capa_1" enable-background="new 0 0 511.785 511.785" height="512" viewBox="0 0 511.785 511.785" width="512" xmlns="http://www.w3.org/2000/svg"><g><path d="m330.731 161.882h-17.695c-7.12-12.86-18.798-22.851-32.84-27.794l.404-.973c4.554-10.968-.665-23.597-11.633-28.15l-5.968-2.478 8.162-19.659 25.444 10.564c2.322.964 4.729 1.42 7.1 1.42 7.29 0 14.222-4.317 17.187-11.457l6.993-16.845c3.929-9.463-.574-20.358-10.037-24.287l-98.254-40.793c-4.585-1.903-9.636-1.907-14.222-.012-4.587 1.896-8.162 5.464-10.065 10.048l-6.993 16.844c-1.903 4.584-1.908 9.635-.012 14.223 1.896 4.587 5.464 8.162 10.048 10.064l25.443 10.564-8.162 19.659-5.968-2.478c-5.313-2.207-11.168-2.211-16.484-.013-5.317 2.197-9.46 6.334-11.666 11.647l-11.467 27.62c-1.588 3.826.226 8.214 4.051 9.803 3.825 1.586 8.215-.225 9.803-4.051l11.467-27.621c.67-1.613 1.927-2.869 3.542-3.536 1.613-.668 3.391-.666 5.004.004l59.301 24.621c3.33 1.382 4.914 5.216 3.532 8.545l-1.469 3.539c-1.669-.139-3.352-.228-5.056-.228-33.268 0-60.333 27.065-60.333 60.333 0 18.412 8.299 34.913 21.342 45.988l-9.323 22.456-71.378-29.635 31.047-74.782c1.588-3.826-.226-8.214-4.051-9.803-3.827-1.587-8.215.225-9.803 4.051l-36.862 88.79c-4.201 10.12-4.21 21.269-.026 31.395 1.953 4.725 4.719 8.955 8.132 12.559l-6.007 23.335c-2.281 8.859 2.371 18.185 10.819 21.691l14.025 5.823c2.281.947 4.666 1.398 7.025 1.398 6.381 0 12.571-3.304 15.977-9.049l12.287-20.728c4.962-.126 9.911-1.154 14.637-3.107 10.126-4.185 18.016-12.062 22.217-22.181l14.06-33.866c7.932 3.842 16.825 6 26.214 6 24.013 0 44.788-14.104 54.493-34.46h16.018c9.929 0 19.636 1.794 28.853 5.332.884.339 1.792.5 2.686.5 3.015 0 5.858-1.832 7.003-4.814 1.484-3.867-.447-8.205-4.314-9.689-10.938-4.199-22.454-6.328-34.228-6.328h-11.178c.645-3.53 1-7.16 1-10.874 0-4.865-.594-9.592-1.687-14.126h11.864c66.598 0 120.78 54.182 120.78 120.78 0 29.062-10.516 57.164-29.61 79.13-16.972 19.525-39.651 33.052-64.57 38.686v-25.825c18.529-5.381 35.242-16.376 47.573-31.456 13.934-17.041 21.607-38.539 21.607-60.535 0-27.156-11.641-53.158-31.938-71.339-3.085-2.763-7.826-2.503-10.59.583-2.764 3.085-2.503 7.827.583 10.59 17.125 15.339 26.946 37.27 26.946 60.167 0 35.471-23.617 66.905-57.055 77.215-5.582-13.237-18.691-22.553-33.936-22.553h-68.983c-13.836 0-25.093 11.257-25.093 25.093v1.751h-25.181c-4.142 0-7.5 3.358-7.5 7.5s3.358 7.5 7.5 7.5h25.181v24.993h-117.385c-4.176 0-7.573-3.397-7.573-7.573v-9.847c0-4.176 3.397-7.573 7.573-7.573h60.207c4.142 0 7.5-3.358 7.5-7.5s-3.358-7.5-7.5-7.5h-60.207c-12.447 0-22.573 10.126-22.573 22.573v9.847c0 12.447 10.126 22.573 22.573 22.573h117.384v20.754h-158.364c-12.575 0-22.805 10.23-22.805 22.804v26.565c0 4.142 3.358 7.5 7.5 7.5h353.323c4.142 0 7.5-3.358 7.5-7.5v-26.565c0-12.574-10.23-22.804-22.805-22.804h-33.462v-24.101c29.32-5.857 56.073-21.383 75.891-44.182 21.467-24.696 33.29-56.293 33.29-88.971 0-74.869-60.911-135.779-135.78-135.779zm-128.566-125.078c-.211-.512-.493-1.549.002-2.741l6.993-16.845c.495-1.192 1.428-1.725 1.94-1.937s1.549-.493 2.742.002l98.254 40.792c1.824.757 2.692 2.857 1.935 4.682l-6.993 16.844c-.757 1.824-2.858 2.69-4.683 1.935l-98.254-40.792c-1.191-.494-1.725-1.427-1.936-1.94zm35.482 32.11 14.782 6.137 4.877 2.025-8.162 19.659-9.83-4.081-9.83-4.081zm-84.091 250.106-14.026-5.823c-1.596-.663-2.475-2.425-2.044-4.099l4.591-17.833c.313.139.621.285.939.417l23.318 9.681c.318.132.639.247.958.371l-9.39 15.841c-.882 1.488-2.751 2.107-4.346 1.445zm38.443-31.494c-6.424 2.654-13.497 2.648-19.914-.017l-23.318-9.681c-6.419-2.665-11.416-7.67-14.07-14.093-2.655-6.423-2.649-13.496.016-19.914l.062-.15 71.378 29.635-.062.15c-2.664 6.419-7.669 11.415-14.092 14.07zm68.221-51.184c-24.997 0-45.333-20.336-45.333-45.333s20.336-45.333 45.333-45.333 45.333 20.336 45.333 45.333-20.336 45.333-45.333 45.333zm138.378 241.377v19.065h-338.324v-19.065c0-4.303 3.501-7.804 7.805-7.804h322.714c4.304 0 7.805 3.501 7.805 7.804zm-157.154-22.804v-77.498c0-5.565 4.528-10.093 10.093-10.093h68.983c12.026 0 21.811 9.784 21.811 21.811v65.781h-100.887z"/><path d="m260.22 163.981c-14.903 0-27.027 12.125-27.027 27.027s12.124 27.027 27.027 27.027 27.027-12.125 27.027-27.027-12.124-27.027-27.027-27.027zm0 39.054c-6.632 0-12.027-5.396-12.027-12.027s5.395-12.027 12.027-12.027 12.027 5.396 12.027 12.027-5.395 12.027-12.027 12.027z"/><path d="m291.887 388.078c-12.705 0-23.042 10.336-23.042 23.041s10.336 23.042 23.042 23.042 23.041-10.336 23.041-23.042-10.336-23.041-23.041-23.041zm0 31.083c-4.434 0-8.042-3.607-8.042-8.042 0-4.434 3.607-8.041 8.042-8.041s8.041 3.607 8.041 8.041-3.607 8.042-8.041 8.042z"/></g></svg>