<?xml version="1.0" encoding="iso-8859-1"?>
<!-- Generator: Adobe Illustrator 19.0.0, SVG Export Plug-In . SVG Version: 6.00 Build 0)  -->
<svg version="1.1" id="Capa_1" xmlns="http://www.w3.org/2000/svg" xmlns:xlink="http://www.w3.org/1999/xlink" x="0px" y="0px"
	 viewBox="0 0 480.001 480.001" style="enable-background:new 0 0 480.001 480.001;" xml:space="preserve">
<g>
	<g>
		<path d="M456.401,291.8l-133.944-33.4c-6.571-1.639-13.386-2.073-20.112-1.28l-123.728,14.56L51.561,159.528
			c-5.5-4.854-12.584-7.532-19.92-7.528h-1.528C13.482,152,0,165.481,0,182.112c0,8.567,3.649,16.728,10.033,22.441l128.8,115.2
			c3.953,3.521,8.387,6.463,13.168,8.736v30.792c-0.036,18.035,14.556,32.685,32.592,32.72c5.546,0.011,11.003-1.391,15.856-4.072
			l55.552,10.68V424h-184c-22.08,0.026-39.974,17.92-40,40c0,4.418,3.582,8,8,8h400c4.418,0,8-3.582,8-8v-33.68
			c0.106-26.186-18.034-48.914-43.592-54.616L265.777,344.2h-0.096h-0.112l-33.368-6.68l4.8-9.536l74.4-7.832l129.696,34.4h0.112
			c2.451,0.618,4.969,0.93,7.496,0.928c17.231,0.053,31.243-13.873,31.296-31.104c0-0.051,0-0.101,0-0.152v-2.128
			C480.017,307.779,470.287,295.288,456.401,291.8z M256.001,456H49.369c3.403-9.582,12.464-15.988,22.632-16h184V456z
			 M272.001,362.024l128.864,29.288c15.952,3.565,28.094,16.535,30.6,32.688H288.001v16h144v16h-160V362.024z M199.673,366.76
			c-4.133,8.258-14.177,11.602-22.435,7.469c-5.66-2.833-9.236-8.619-9.237-14.949v-25.92c4.633,0.711,9.336,0.835,14,0.368
			l36.088-3.8L199.673,366.76z M256.001,358.56v23.76l-42.184-8.12c0.056-0.096,0.12-0.184,0.176-0.288l10.792-21.6L256.001,358.56z
			 M464.001,324.224c-0.003,8.421-6.832,15.246-15.253,15.243c-1.228,0-2.451-0.149-3.643-0.443l-131.056-34.76
			c-0.938-0.249-1.914-0.325-2.88-0.224l-130.832,13.776c-11.235,1.194-22.45-2.428-30.864-9.968l-128.8-115.2
			c-5.819-5.185-6.333-14.105-1.148-19.924c2.69-3.019,6.545-4.739,10.588-4.724h1.528c3.438,0.001,6.757,1.255,9.336,3.528
			L170.705,286c1.702,1.512,3.972,2.22,6.232,1.944l127.28-14.968c4.815-0.576,9.696-0.267,14.4,0.912l133.92,33.424
			c6.752,1.727,11.473,7.814,11.464,14.784V324.224z"/>
	</g>
</g>
<g>
	<g>
		<rect x="176.001" y="344" width="16" height="16"/>
	</g>
</g>
<g>
	<g>
		<path d="M478.596,26.156C474.969,15.321,464.827,8.013,453.401,8h-173.4c-13.255,0-24,10.745-24,24v160h16V32c0-4.418,3.582-8,8-8
			h173.4c5.85-0.014,10.603,4.717,10.617,10.567c0.011,4.577-2.92,8.644-7.265,10.081L384.409,68.8
			c-9.785,3.263-16.391,12.413-16.408,22.728V104.8c-7.439,1.54-14.284,5.174-19.728,10.472c-7.003-11.222-21.778-14.643-33-7.64
			c-7.026,4.384-11.288,12.086-11.272,20.368v24c0,13.255,10.745,24,24,24v-16c-4.418,0-8-3.582-8-8v-24c0-4.418,3.582-8,8-8
			s8,3.582,8,8v16c0,22.091,17.909,40,40,40c22.091,0,40-17.909,40-40v-16c0-4.418,3.582-8,8-8s8,3.582,8,8v24c0,4.418-3.582,8-8,8
			v16c13.255,0,24-10.745,24-24v-24c0.022-13.228-10.684-23.97-23.912-23.992c-8.278-0.014-15.977,4.248-20.36,11.271
			c-5.443-5.301-12.288-8.937-19.728-10.48V91.52c0.003-3.442,2.206-6.496,5.472-7.584l72.344-24.112
			C475.747,55.161,483.26,40.087,478.596,26.156z M400.001,144c0,13.255-10.745,24-24,24s-24-10.745-24-24s10.745-24,24-24
			S400.001,130.746,400.001,144z"/>
	</g>
</g>
<g>
	<g>
		<rect x="368.001" y="136" width="16" height="16"/>
	</g>
</g>
<g>
	<g>
		<path d="M288.001,208h-48v-24c0-13.255-10.745-24-24-24s-24,10.745-24,24v8h16v-8c0-4.418,3.582-8,8-8s8,3.582,8,8v24h-64
			c-4.418,0-8,3.582-8,8v16h16v-8h112v24h16v-32C296.001,211.582,292.419,208,288.001,208z"/>
	</g>
</g>
<g>
</g>
<g>
</g>
<g>
</g>
<g>
</g>
<g>
</g>
<g>
</g>
<g>
</g>
<g>
</g>
<g>
</g>
<g>
</g>
<g>
</g>
<g>
</g>
<g>
</g>
<g>
</g>
<g>
</g>
</svg>
