<svg id="Capa_1" enable-background="new 0 0 511.997 511.997" height="512" viewBox="0 0 511.997 511.997" width="512" xmlns="http://www.w3.org/2000/svg"><g><path d="m417.011 436.917h-44.705l-13.211-12.237c28.207-12.579 52.445-32.383 70.578-57.821 20.95-29.39 32.023-64.015 32.023-100.131 0-42.049-15.245-82.384-42.994-113.982.12-1.367.193-2.748.193-4.145 0-18.221-10.388-34.053-25.55-41.921l12.634-12.628 23.269-11.626c3.904-1.951 6.653-5.687 7.352-9.995.699-4.307-.727-8.72-3.813-11.805l-56.681-56.643c-3.086-3.083-7.5-4.505-11.807-3.809-4.306.699-8.042 3.445-9.994 7.346l-11.639 23.262-88.026 87.96c-5.641-3.496-13.158-2.812-18.05 2.076l-21.875 21.86h-49.498c-7.505 0-13.61 6.105-13.61 13.61v25.46c0 7.504 6.105 13.61 13.61 13.61h38.797l-18.694 18.681c-5.268 5.203-5.279 14.033 0 19.257l18.016 18.003c5.305 5.303 13.938 5.303 19.243 0l18.708-18.695v38.763c0 7.51 6.11 13.62 13.62 13.62h25.48c7.504 0 13.61-6.11 13.61-13.62v-49.45l21.874-21.859c2.765-2.763 4.288-6.437 4.288-10.345 0-2.765-.776-5.405-2.201-7.696l11.75-11.741c7.872 15.154 23.714 25.538 41.947 25.538 3.297 0 6.516-.342 9.625-.988 15.931 20.49 24.657 45.838 24.657 71.901 0 4.143 3.358 7.5 7.5 7.5s7.5-3.357 7.5-7.5c0-27.911-8.877-55.096-25.154-77.558 7.587-4.524 13.799-11.114 17.866-18.986 21.389 27.602 33.048 61.417 33.048 96.544 0 64.529-39.867 122.936-99.668 146.775l-21.385-19.809c43.025-12.584 77.625-46.793 90.163-90.396 1.145-3.98-1.155-8.136-5.136-9.28s-8.136 1.154-9.28 5.136c-11.972 41.638-46.637 73.612-88.884 82.372l-4.95-4.586c-10.628-9.845-27.276-9.845-37.903 0l-4.953 4.588c-21.749-4.5-41.653-15.065-57.562-30.421h55.483c7.506 0 13.612-6.106 13.612-13.612v-23.328c0-7.506-6.106-13.612-13.612-13.612h-134.794c-4.142 0-7.5 3.357-7.5 7.5s3.358 7.5 7.5 7.5h133.407v20.553h-195.935v-20.553h27.528c4.142 0 7.5-3.357 7.5-7.5s-3.358-7.5-7.5-7.5h-28.916c-7.505 0-13.612 6.106-13.612 13.612v23.328c0 7.506 6.106 13.612 13.612 13.612h73.633c18.339 32.687 46.542 58.401 80.557 73.586l-13.198 12.225h-44.704c-20.986 0-38.06 17.073-38.06 38.06v24.521c0 6.893 5.607 12.5 12.5 12.5h307.931c6.893 0 12.5-5.607 12.5-12.5v-24.521c0-20.987-17.073-38.06-38.06-38.06zm-50.152-420.968 53.958 53.92-17.796 8.892-45.059-45.028zm-200.252 164.408v-22.68h41.147c.404 3.205 1.836 6.171 4.158 8.492l10.655 10.648-3.542 3.54zm76.983 28.741c-.068.065-.135.132-.2.2l-30.431 30.41-16.052-16.042 36.271-36.247 16.052 16.042zm35.407 60.889h-22.71v-52.373l3.553-3.55 10.663 10.656c2.381 2.379 5.387 3.751 8.494 4.144zm1.851-56.135-58.068-58.028 24.156-24.139 58.068 58.028zm43.565-65.252c0 1.84.117 3.653.323 5.439l-17.107 17.093-42.098-42.069 83.305-83.243 42.094 42.064-13.831 13.825c-1.788-.206-3.602-.323-5.444-.323-26.049 0-47.242 21.181-47.242 47.214zm47.242 32.214c-15.506 0-28.488-10.995-31.553-25.591-.003-.016-.008-.032-.011-.048-.443-2.124-.677-4.322-.677-6.575 0-17.763 14.463-32.214 32.242-32.214 17.778 0 32.241 14.451 32.241 32.214s-14.464 32.214-32.242 32.214zm-91.808 207.129c4.911-4.548 12.605-4.548 17.516 0l42.846 39.689c.011.01.022.021.034.031l9.991 9.254h-123.257zm-124.834-36.837h31.705c16.996 20.479 39.56 35.25 64.835 42.6l-21.373 19.798c-31.086-12.386-57.301-34.203-75.167-62.398zm285.058 145.891h-302.931v-22.021c0-12.715 10.345-23.06 23.06-23.06h256.812c12.715 0 23.06 10.345 23.06 23.06v22.021z" fill="#ef3742"/></g></svg>