<svg height="512" viewBox="0 0 60 60" width="512" xmlns="http://www.w3.org/2000/svg"><g id="Page-1" fill="none" fill-rule="evenodd"><g id="011---Search-Book" fill="rgb(0,0,0)" fill-rule="nonzero"><path id="Shape" d="m56 12.1v-2.1c0-2.209139-1.790861-4-4-4h-2.553c.9253225-1.56084491.6701543-3.55107413-.619-4.828-1.5821292-1.51213879-4.0738708-1.51213879-5.656 0l-4.566 4.565c-.0826243.08488687-.1575828.17691172-.224.275l-2.376.008c-1.5568415-.00936607-3.0715116.50562178-4.3 1.462-1.2103237-.3149743-2.4553736-.47690469-3.706-.482-.135 0-.265.017-.4.02-1.0836723-.66389207-2.3291389-1.01677429-3.6-1.02h-16c-2.209139 0-4 1.790861-4 4v2.1c-2.3264168.4784327-3.99700171 2.5248992-4 4.9v38c.00330612 2.7600532 2.23994685 4.9966939 5 5h50c2.7600532-.0033061 4.9966939-2.2399468 5-5v-38c-.0029983-2.3751008-1.6735832-4.4215673-4-4.9zm-2-2.1v36c0 1.1045695-.8954305 2-2 2h-16c-1.8562593-.0084825-3.6379382.7299197-4.944 2.049-.02.02-.037.042-.056.061v-13.41c2.1625888-.4479032 4.1988559-1.3700638 5.962-2.7h13.038c.5522847 0 1-.4477153 1-1s-.4477153-1-1-1h-10.851c.8218327-.9105044 1.5294029-1.9179608 2.107-3h8.744c.5522847 0 1-.4477153 1-1s-.4477153-1-1-1h-7.875c.3452038-.9721702.5885089-1.9775633.726-3h7.149c.5522847 0 1-.4477153 1-1s-.4477153-1-1-1h-7c.0006089-1.0075178-.0998947-2.0125536-.3-3h7.3c.5522847 0 1-.4477153 1-1s-.4477153-1-1-1h-7.875c-.4043244-1.1495476-.9476895-2.245345-1.618-3.263l1.833-1.837c.6860296.1948178 1.4236794-.0008148 1.923-.51l3.393-3.39h4.344c1.1045695 0 2 .8954305 2 2zm0 39.463v2.537c0 1.1045695-.8954305 2-2 2h-20.9c.4815778-2.3245107 2.5261371-3.9935387 4.9-4h16c.7024341.0010879 1.3925804-.1842164 2-.537zm-14.69-40.189 1.416 1.416-1.45 1.45c-.44049-.5024919-.9135081-.97551-1.416-1.416zm5.276-6.688c.5021489-.51991317 1.2457558-.72842519 1.9450146-.54539431.6992589.18303088 1.2453488.7291208 1.4283797 1.42837966.1830309.69925887-.0254811 1.44286571-.5453943 1.94501465l-4.565 4.565-2.828-2.828zm-8.586 5.434 1.739-.006-1.476 1.479c-.6611008-.43432056-1.3552264-.81615651-2.076-1.142.5802056-.21594742 1.1939178-.32799306 1.813-.331zm5 13.98c0 7.1797017-5.8202983 13-13 13s-13-5.8202983-13-13 5.8202983-13 13-13c7.1762751.00826602 12.991734 5.8237249 13 13zm-35-12c0-1.1045695.8954305-2 2-2h14.66c-2.2260308.85401378-4.2171151 2.2250478-5.809 4h-6.851c-.55228475 0-1 .4477153-1 1s.44771525 1 1 1h5.334c-.5965477.9425399-1.0859167 1.9487819-1.459 3h-3.875c-.55228475 0-1 .4477153-1 1s.44771525 1 1 1h3.3c-.2001053.9874464-.3006089 1.9924822-.3 3h-3c-.55228475 0-1 .4477153-1 1s.44771525 1 1 1h3.149c.1374911 1.0224367.3807962 2.0278298.726 3h-3.875c-.55228475 0-1 .4477153-1 1s.44771525 1 1 1h4.744c.5775971 1.0820392 1.2851673 2.0894956 2.107 3h-6.851c-.55228475 0-1 .4477153-1 1s.44771525 1 1 1h9.038c2.582642 1.9460113 5.7282717 2.9990004 8.962 3 .338 0 .668-.029 1-.051v13.161c-.017-.018-.032-.037-.049-.054-1.3069869-1.3228143-3.0914326-2.0638404-4.951-2.056h-16c-1.1045695 0-2-.8954305-2-2zm0 39.463c.60741957.3527836 1.29756593.5380879 2 .537h16c2.3738629.0064613 4.4184222 1.6754893 4.9 4h-20.9c-1.1045695 0-2-.8954305-2-2zm52 5.537c0 1.6568542-1.3431458 3-3 3h-50c-1.65685425 0-3-1.3431458-3-3v-38c.00525139-1.2667854.80564913-2.3937454 2-2.816v37.816c0 2.209139 1.790861 4 4 4h44c2.209139 0 4-1.790861 4-4v-37.816c1.1943509.4222546 1.9947486 1.5492146 2 2.816z"/><path id="Shape" d="m10 39h11c.5522847 0 1-.4477153 1-1s-.4477153-1-1-1h-11c-.55228475 0-1 .4477153-1 1s.44771525 1 1 1z"/><path id="Shape" d="m10 44h5c.5522847 0 1-.4477153 1-1s-.4477153-1-1-1h-5c-.55228475 0-1 .4477153-1 1s.44771525 1 1 1z"/><path id="Shape" d="m18 43c0 .5522847.4477153 1 1 1h5c.5522847 0 1-.4477153 1-1s-.4477153-1-1-1h-5c-.5522847 0-1 .4477153-1 1z"/><path id="Shape" d="m50 42h-14c-.5522847 0-1 .4477153-1 1s.4477153 1 1 1h14c.5522847 0 1-.4477153 1-1s-.4477153-1-1-1z"/><path id="Shape" d="m50 37h-14c-.5522847 0-1 .4477153-1 1s.4477153 1 1 1h14c.5522847 0 1-.4477153 1-1s-.4477153-1-1-1z"/><path id="Shape" d="m46 12c-.5522847 0-1 .4477153-1 1s.4477153 1 1 1h4c.5522847 0 1-.4477153 1-1s-.4477153-1-1-1z"/><path id="Shape" d="m17.918 17.615c-.6058779 1.3824779-.91846 2.8755852-.918 4.385 0 .336.021.668.05 1v.009c.5140261 5.6640261 5.2626971 10.0012571 10.95 10.0012571s10.4359739-4.337231 10.95-10.0012571v-.009c.029-.329.05-.661.05-1 .00046-1.5094148-.3121221-3.0025221-.918-4.385l-.005-.01c-1.7454739-4.0105864-5.703045-6.6043221-10.077-6.6043221s-8.3315261 2.5937357-10.077 6.6043221zm17.56-.615h-.478c-.5522847 0-1 .4477153-1 1s.4477153 1 1 1h1.475c.3453775.9625909.5229561 1.9773257.525 3h-2c-.5522847 0-1 .4477153-1 1s.4477153 1 1 1h1.768c-.6918927 3.0011368-2.866457 5.4422435-5.768 6.475v-16.95c1.8267052.648133 3.396622 1.8664137 4.478 3.475zm-7.478-4c.3341744.0009508.6680323.0206484 1 .059v17.882c-2.3858448.2759782-4.7819534-.4240288-6.644-1.941h2.644c.5522847 0 1-.4477153 1-1s-.4477153-1-1-1h-4.478c-.6102803-.9124596-1.0475527-1.9293722-1.29-3h5.768c.5522847 0 1-.4477153 1-1s-.4477153-1-1-1h-6c.0020439-1.0226743.1796225-2.0374091.525-3h5.475c.5522847 0 1-.4477153 1-1s-.4477153-1-1-1h-4.478c1.668898-2.497779 4.4739831-3.9982257 7.478-4z"/></g></g></svg>