<?xml version="1.0" encoding="utf-8"?>
<!-- Generator: Adobe Illustrator 16.0.0, SVG Export Plug-In . SVG Version: 6.00 Build 0)  -->
<!DOCTYPE svg PUBLIC "-//W3C//DTD SVG 1.1//EN" "http://www.w3.org/Graphics/SVG/1.1/DTD/svg11.dtd">
<svg version="1.1" id="Слой_1" xmlns="http://www.w3.org/2000/svg" xmlns:xlink="http://www.w3.org/1999/xlink" x="0px" y="0px"
	 width="80px" height="80px" viewBox="0 0 80 80" enable-background="new 0 0 80 80" xml:space="preserve">
<g>
	<path fill="#6D6D6D" d="M34.882,67.166c-0.833,0-1.679-0.141-2.512-0.43c-3.113-1.08-5.125-3.896-5.125-7.168v-8.365
		c0-2.035,1.656-3.692,3.691-3.692h9.894v15.995c0.074,0.28,0.021,0.592-0.173,0.837C39.214,66.17,37.101,67.166,34.882,67.166z
		 M30.937,49.421c-0.983,0-1.782,0.8-1.782,1.782v8.365c0,2.449,1.507,4.556,3.841,5.365c1.729,0.6,4.153,0.5,5.926-1.49V49.421
		H30.937z"/>
	<path fill="#6D6D6D" d="M45.051,67.166c-2.219,0-4.333-0.995-5.777-2.823c-0.326-0.413-0.256-1.014,0.158-1.34
		c0.414-0.328,1.014-0.256,1.341,0.157c1.787,2.264,4.354,2.398,6.162,1.773c2.334-0.811,3.842-2.916,3.842-5.365v-8.365
		c0-0.982-0.801-1.782-1.781-1.782h-8.939c-0.527,0-0.954-0.429-0.954-0.955s0.427-0.954,0.954-0.954h8.939
		c2.035,0,3.689,1.656,3.689,3.691v8.365c0,3.272-2.012,6.088-5.123,7.168C46.729,67.025,45.883,67.166,45.051,67.166z"/>
	<path fill="#6D6D6D" d="M56.757,64.705c-2.219,0-4.332-0.997-5.774-2.823c-0.326-0.414-0.256-1.015,0.158-1.341
		c0.412-0.327,1.014-0.256,1.34,0.157c1.789,2.265,4.356,2.399,6.164,1.772c2.332-0.81,3.842-2.916,3.842-5.365v-8.604
		c0-0.852-0.693-1.543-1.545-1.543h-6.678c-0.527,0-0.955-0.428-0.955-0.955c0-0.525,0.428-0.955,0.955-0.955h6.678
		c1.904,0,3.453,1.549,3.453,3.453v8.604c0,3.273-2.012,6.088-5.125,7.17C58.438,64.564,57.591,64.705,56.757,64.705z"/>
	<path fill="#6D6D6D" d="M68.466,61.463c-2.219,0-4.333-0.995-5.774-2.822c-0.328-0.414-0.258-1.016,0.156-1.341
		s1.016-0.257,1.342,0.157c1.787,2.264,4.354,2.4,6.162,1.773c2.334-0.812,3.842-2.916,3.842-5.364v-8.604
		c0-0.851-0.692-1.544-1.545-1.544h-6.678c-0.527,0-0.955-0.428-0.955-0.954c0-0.527,0.428-0.955,0.955-0.955h6.678
		c1.904,0,3.453,1.549,3.453,3.453v8.604c0,3.272-2.012,6.088-5.123,7.168C70.145,61.322,69.298,61.463,68.466,61.463z"/>
	<path fill="#6D6D6D" d="M23.174,64.705c-0.833,0-1.68-0.141-2.512-0.43c-3.113-1.082-5.124-3.896-5.124-7.17v-8.604
		c0-1.904,1.548-3.453,3.453-3.453h6.679c0.527,0,0.954,0.43,0.954,0.955c0,0.527-0.427,0.955-0.954,0.955h-6.679
		c-0.852,0-1.544,0.691-1.544,1.543v8.604c0,2.449,1.507,4.557,3.841,5.365c1.807,0.627,4.375,0.491,6.163-1.772
		c0.327-0.413,0.927-0.484,1.34-0.157c0.414,0.326,0.485,0.927,0.158,1.341C27.506,63.708,25.393,64.705,23.174,64.705z"/>
	<path fill="#6D6D6D" d="M11.466,61.463c-0.833,0-1.68-0.141-2.512-0.429c-3.113-1.08-5.124-3.896-5.124-7.168v-8.604
		c0-1.904,1.549-3.453,3.453-3.453h6.678c0.527,0,0.955,0.428,0.955,0.955c0,0.526-0.427,0.954-0.955,0.954H7.283
		c-0.851,0-1.544,0.693-1.544,1.544v8.604c0,2.448,1.508,4.554,3.841,5.364c1.807,0.629,4.375,0.49,6.163-1.773
		c0.327-0.414,0.927-0.482,1.341-0.157s0.484,0.927,0.158,1.341C15.798,60.468,13.685,61.463,11.466,61.463z"/>
	<path fill="#6D6D6D" d="M53.141,38.789H42.82c-2.094,0-3.798-1.704-3.798-3.798v-4.707c0-3.244,0.973-6.371,2.812-9.042
		l2.514-3.651c1.289-1.873,3.416-2.989,5.688-2.989c3.807,0,6.903,3.097,6.903,6.904v13.485
		C56.939,37.085,55.234,38.789,53.141,38.789z M50.035,16.511c-1.645,0-3.182,0.808-4.114,2.162l-2.514,3.652
		c-1.62,2.352-2.478,5.105-2.478,7.96v4.707c0,1.042,0.848,1.889,1.891,1.889h10.32c1.043,0,1.891-0.847,1.891-1.889V21.506
		C55.029,18.751,52.79,16.511,50.035,16.511z"/>
	<path fill="#6D6D6D" d="M37.132,38.789H26.813c-2.095,0-3.799-1.704-3.799-3.798V21.506c0-3.807,3.098-6.904,6.904-6.904
		c2.272,0,4.398,1.117,5.686,2.989l2.515,3.651c1.31,1.904,2.398,5.127,2.797,7.327c0.093,0.519-0.251,1.016-0.77,1.109
		c-0.517,0.096-1.015-0.25-1.109-0.77c-0.353-1.95-1.345-4.92-2.49-6.584l-2.514-3.652c-0.932-1.354-2.47-2.162-4.114-2.162
		c-2.754,0-4.995,2.241-4.995,4.995V34.99c0,1.042,0.847,1.889,1.89,1.889h10.319c1.042,0,1.89-0.847,1.89-1.889
		c0-0.527,0.427-0.955,0.955-0.955s0.954,0.427,0.954,0.955C40.932,37.085,39.227,38.789,37.132,38.789z"/>
	<path fill="#6D6D6D" d="M64.676,35.83h-8.689c-0.528,0-0.955-0.428-0.955-0.955s0.427-0.955,0.955-0.955h8.689
		c0.941,0,1.706-0.765,1.706-1.707V24.08c0-1.717-0.728-3.236-2.045-4.277c-1.351-1.067-3.121-1.472-4.737-1.087
		c-0.516,0.125-1.029-0.194-1.15-0.707c-0.123-0.513,0.193-1.027,0.707-1.15c2.18-0.521,4.561,0.02,6.363,1.446
		c1.787,1.411,2.771,3.462,2.771,5.776v8.133C68.291,34.208,66.669,35.83,64.676,35.83z"/>
	<path fill="#6D6D6D" d="M76.184,32.798h-8.691c-0.526,0-0.954-0.428-0.954-0.955c0-0.527,0.428-0.955,0.954-0.955h8.691
		c0.94,0,1.707-0.765,1.707-1.707v-8.133c0-2.681-1.738-4.369-3.365-5.056c-2.049-0.865-4.273-0.477-5.808,1.016
		c-0.377,0.367-0.983,0.36-1.351-0.019c-0.367-0.378-0.358-0.981,0.02-1.35c2.094-2.036,5.112-2.576,7.881-1.406
		c2.795,1.18,4.531,3.792,4.531,6.815v8.133C79.799,31.175,78.177,32.798,76.184,32.798z"/>
	<path fill="#6D6D6D" d="M12.306,32.798h-8.69C1.622,32.798,0,31.175,0,29.182v-8.133c0-2.882,1.62-5.441,4.226-6.678
		c2.604-1.235,5.558-0.911,7.711,0.846c0.408,0.333,0.469,0.935,0.136,1.343c-0.334,0.409-0.935,0.47-1.344,0.136
		c-1.575-1.287-3.754-1.516-5.685-0.6c-1.963,0.932-3.135,2.783-3.135,4.953v8.133c0,0.941,0.766,1.707,1.707,1.707h8.69
		c0.528,0,0.955,0.428,0.955,0.955C13.261,32.37,12.834,32.798,12.306,32.798z"/>
	<path fill="#6D6D6D" d="M23.813,35.83h-8.691c-1.994,0-3.615-1.623-3.615-3.616v-8.133c0-2.272,0.955-4.3,2.689-5.71
		c1.754-1.425,4.093-2.006,6.253-1.555c0.516,0.108,0.847,0.614,0.739,1.13c-0.108,0.516-0.614,0.847-1.129,0.74
		c-1.606-0.337-3.348,0.101-4.659,1.167c-1.279,1.04-1.984,2.541-1.984,4.229v8.133c0,0.941,0.766,1.707,1.707,1.707h8.691
		c0.527,0,0.955,0.428,0.955,0.955C24.768,35.402,24.341,35.83,23.813,35.83z"/>
	<path fill="#6D6D6D" d="M77.107,16.511c-0.047,0-0.09-0.003-0.137-0.009c-0.521-0.075-0.885-0.559-0.812-1.08
		c0.28-1.957,0.567-3.979,0.222-5.889c-0.279-1.535-1.179-3.448-2.872-4.218c-1.632-0.741-3.575-0.346-5.763,0.205l-19.924,5.019
		c-6.279,1.582-7.767,1.958-15.534,0l-19.924-5.02c-2.188-0.55-4.131-0.945-5.763-0.205C4.91,6.084,4.009,7.998,3.73,9.533
		c-0.347,1.908-0.059,3.932,0.221,5.889c0.075,0.521-0.289,1.005-0.81,1.08c-0.524,0.068-1.006-0.29-1.08-0.811
		c-0.287-2.01-0.612-4.287-0.21-6.5C2.324,6.588,3.805,4.49,5.813,3.578c2.19-0.997,4.57-0.525,7.018,0.091l19.924,5.02
		c7.302,1.838,8.414,1.559,14.583,0.004l19.941-5.025c2.449-0.617,4.828-1.088,7.02-0.091c2.008,0.912,3.488,3.011,3.961,5.613
		c0.403,2.216,0.078,4.492-0.209,6.5C77.982,16.167,77.574,16.511,77.107,16.511z"/>
	<path fill="#6D6D6D" d="M39.899,76.671c-21.63,0-38.574-7.952-38.574-18.104c0-2.342,0.906-4.608,2.694-6.738
		c0.338-0.403,0.94-0.456,1.345-0.118c0.403,0.339,0.456,0.94,0.117,1.345c-1.491,1.778-2.248,3.633-2.248,5.514
		c0,8.779,16.791,16.195,36.665,16.195c19.875,0,36.665-7.416,36.665-16.195c0-1.827-0.715-3.631-2.123-5.362
		c-0.334-0.409-0.271-1.011,0.138-1.343c0.409-0.334,1.011-0.271,1.345,0.138c1.692,2.081,2.551,4.29,2.551,6.567
		C78.475,68.719,61.529,76.671,39.899,76.671z"/>
	<path fill="#F7453B" d="M50.035,19.374c-0.702,0-1.357,0.345-1.756,0.923l-2.516,3.652c-0.675,0.98-1.179,2.049-1.509,3.17
		c1.591-0.01,3.185,0.207,4.707,0.669c1.116,0.339,2.19,0.807,3.203,1.383v-7.666C52.166,20.331,51.21,19.374,50.035,19.374z"/>
	<path fill="#F7453B" d="M30.148,19.374c0.702,0,1.357,0.345,1.756,0.923l2.514,3.652c0.676,0.98,1.179,2.049,1.51,3.17
		c-1.591-0.01-3.184,0.207-4.708,0.669c-1.117,0.339-2.19,0.807-3.204,1.383v-7.666C28.018,20.331,28.973,19.374,30.148,19.374z"/>
</g>
</svg>
