<?xml version="1.0" encoding="utf-8"?>
<!-- Generator: Adobe Illustrator 16.0.0, SVG Export Plug-In . SVG Version: 6.00 Build 0)  -->
<!DOCTYPE svg PUBLIC "-//W3C//DTD SVG 1.1//EN" "http://www.w3.org/Graphics/SVG/1.1/DTD/svg11.dtd">
<svg version="1.1" id="Слой_1" xmlns="http://www.w3.org/2000/svg" xmlns:xlink="http://www.w3.org/1999/xlink" x="0px" y="0px"
	 width="80px" height="80px" viewBox="0 0 80 80" enable-background="new 0 0 80 80" xml:space="preserve">
<g>
	<g>
		<path fill="#6D6D6D" d="M39.351,22.151c-0.226,0-0.45-0.085-0.622-0.258l-6.635-6.635c-0.344-0.344-0.344-0.901,0-1.245
			c0.344-0.343,0.902-0.343,1.245,0l6.635,6.636c0.344,0.344,0.344,0.901,0,1.245C39.802,22.066,39.577,22.151,39.351,22.151z"/>
		<path fill="#6D6D6D" d="M42.254,19.121c-0.297,0-0.586-0.15-0.752-0.422l-3.324-5.458c-0.253-0.416-0.121-0.958,0.294-1.21
			c0.416-0.253,0.957-0.121,1.21,0.294l3.324,5.458c0.252,0.416,0.12,0.957-0.296,1.21C42.568,19.08,42.41,19.121,42.254,19.121z"/>
		<path fill="#6D6D6D" d="M36.404,24.97c-0.156,0-0.314-0.042-0.458-0.128l-5.458-3.324c-0.415-0.253-0.546-0.794-0.294-1.21
			c0.253-0.415,0.794-0.546,1.21-0.293l5.458,3.323c0.415,0.253,0.547,0.794,0.294,1.21C36.991,24.82,36.701,24.97,36.404,24.97z"/>
	</g>
	<g>
		<path fill="#6D6D6D" d="M66.221,49.021c-0.223,0-0.449-0.086-0.621-0.258l-6.635-6.636c-0.343-0.344-0.343-0.901,0-1.245
			c0.344-0.344,0.901-0.344,1.246,0l6.635,6.635c0.344,0.344,0.344,0.901,0,1.246C66.673,48.936,66.447,49.021,66.221,49.021z"/>
		<path fill="#6D6D6D" d="M68.075,42.809c-0.154,0-0.313-0.041-0.458-0.129l-5.457-3.322c-0.416-0.254-0.547-0.795-0.294-1.21
			c0.252-0.415,0.795-0.546,1.211-0.294l5.456,3.324c0.416,0.252,0.547,0.795,0.295,1.209
			C68.662,42.659,68.372,42.809,68.075,42.809z"/>
		<path fill="#6D6D6D" d="M60.094,50.792c-0.299,0-0.589-0.149-0.755-0.423l-3.321-5.458c-0.254-0.416-0.121-0.958,0.293-1.21
			c0.416-0.253,0.957-0.121,1.211,0.294l3.322,5.458c0.254,0.416,0.122,0.958-0.294,1.211
			C60.408,50.751,60.249,50.792,60.094,50.792z"/>
	</g>
	<path fill="#6D6D6D" d="M36.798,78c-0.245,0-0.491-0.025-0.737-0.08c-1.258-0.275-2.245-1.218-2.578-2.459
		c-0.752-2.813-2.006-7.088-3.703-11.495c-0.868-2.253-2.866-3.057-4.446-3.057s-3.579,0.804-4.446,3.057
		c-1.696,4.404-2.95,8.683-3.704,11.494c-0.331,1.239-1.317,2.181-2.571,2.454c-1.258,0.275-2.547-0.17-3.369-1.161
		c-6.197-7.478-6.862-15.505-6.707-19.627c0.04-1.048-0.299-2.052-0.956-2.827c-1.344-1.587-2.385-3.798-3.098-6.57
		c-1.544-6.017,0.685-12.37,5.548-15.809c2.489-1.76,5.422-2.691,8.48-2.691c4.152,0,8.04,1.718,10.822,4.749
		c2.783-3.031,6.67-4.749,10.823-4.749c0.485,0,0.879,0.395,0.879,0.881c0,0.486-0.394,0.88-0.879,0.88
		c-3.968,0-7.661,1.782-10.134,4.889l-0.689,0.867l-0.688-0.867c-2.474-3.107-6.167-4.889-10.134-4.889
		c-2.692,0-5.273,0.818-7.464,2.367c-4.27,3.019-6.222,8.62-4.858,13.933c0.636,2.478,1.582,4.508,2.736,5.871
		c0.94,1.11,1.427,2.544,1.371,4.03c-0.146,3.869,0.479,11.41,6.302,18.438c0.406,0.488,1.017,0.698,1.638,0.563
		c0.618-0.135,1.083-0.58,1.247-1.188c0.764-2.854,2.037-7.194,3.761-11.672c0.994-2.582,3.327-4.187,6.089-4.187
		s5.096,1.604,6.09,4.187c1.725,4.479,2.997,8.819,3.761,11.673c0.164,0.612,0.632,1.059,1.253,1.194
		c0.612,0.134,1.216-0.072,1.614-0.552c5.844-7.037,6.467-14.592,6.318-18.469c-0.059-1.481,0.427-2.908,1.365-4.011
		c1.47-1.733,2.311-4.183,2.756-5.931c0.119-0.469,0.6-0.754,1.07-0.635c0.469,0.119,0.754,0.6,0.635,1.07
		c-0.715,2.805-1.764,5.036-3.119,6.635c-0.651,0.767-0.987,1.762-0.948,2.803c0.157,4.13-0.506,12.174-6.723,19.662
		C38.753,77.563,37.796,78,36.798,78z"/>
	<path fill="#6D6D6D" d="M27.868,40.648c-0.359,0-0.697-0.222-0.827-0.579c-0.753-2.065-2.386-4.177-2.402-4.198
		c-0.298-0.383-0.229-0.937,0.154-1.235c0.384-0.298,0.937-0.23,1.235,0.154c0.074,0.095,1.821,2.354,2.667,4.676
		c0.167,0.457-0.068,0.963-0.525,1.131C28.07,40.632,27.969,40.648,27.868,40.648z"/>
	<g>
		<path fill="#6D6D6D" d="M56.005,35.473c-0.837,0-1.622-0.326-2.213-0.917L46.734,27.5c-0.592-0.591-0.916-1.377-0.916-2.213
			s0.324-1.623,0.916-2.214l6.504-6.502c0.591-0.592,1.377-0.917,2.213-0.917c0.837,0,1.622,0.325,2.213,0.917l7.057,7.055
			c0.592,0.591,0.916,1.377,0.916,2.214c0,0.836-0.324,1.622-0.916,2.213l-6.503,6.502C57.627,35.146,56.841,35.473,56.005,35.473z
			 M55.451,17.415c-0.365,0-0.71,0.143-0.969,0.401l-6.502,6.502c-0.533,0.534-0.533,1.402,0,1.937l7.057,7.056
			c0.516,0.517,1.419,0.517,1.938,0l6.5-6.502c0.26-0.259,0.403-0.603,0.403-0.968c0-0.365-0.144-0.71-0.403-0.969l-7.054-7.056
			C56.162,17.558,55.816,17.415,55.451,17.415z"/>
		<path fill="#6D6D6D" d="M62.854,23.884c-0.226,0-0.451-0.086-0.621-0.258c-0.346-0.344-0.346-0.901,0-1.245L77.486,7.125
			l-3.321-3.321L58.91,19.062c-0.344,0.343-0.9,0.343-1.246,0c-0.344-0.344-0.344-0.901,0-1.246L74.165,1.315l5.812,5.811
			l-16.502,16.5C63.305,23.798,63.079,23.884,62.854,23.884z"/>
		<path fill="#6D6D6D" d="M35.444,36.492c-0.271,0-0.539-0.125-0.711-0.361c-0.288-0.392-0.202-0.942,0.19-1.23l11.914-8.734
			c0.394-0.286,0.944-0.202,1.231,0.19c0.289,0.392,0.201,0.943-0.189,1.231l-11.915,8.733
			C35.807,36.436,35.625,36.492,35.444,36.492z"/>
		<path fill="#6D6D6D" d="M45.68,46.729c-0.18,0-0.363-0.056-0.521-0.17c-0.392-0.287-0.476-0.838-0.188-1.23l8.732-11.915
			c0.29-0.393,0.841-0.475,1.23-0.189c0.394,0.288,0.478,0.838,0.189,1.23L46.391,46.37C46.219,46.604,45.951,46.729,45.68,46.729z"
			/>
		<path fill="#6D6D6D" d="M40.198,41.973c-0.225,0-0.45-0.086-0.622-0.258c-0.344-0.344-0.344-0.9,0-1.244l4.808-4.808
			c0.343-0.344,0.9-0.344,1.243,0c0.346,0.344,0.346,0.902,0,1.245l-4.807,4.807C40.648,41.887,40.424,41.973,40.198,41.973z"/>
		<path fill="#6D6D6D" d="M37.478,39.202c-0.268,0-0.532-0.121-0.706-0.354c-0.291-0.39-0.21-0.941,0.18-1.233l5.448-4.066
			c0.39-0.291,0.94-0.211,1.231,0.178c0.29,0.389,0.21,0.941-0.179,1.232l-5.449,4.067C37.846,39.145,37.661,39.202,37.478,39.202z"
			/>
		<path fill="#6D6D6D" d="M42.979,44.706c-0.184,0-0.367-0.058-0.524-0.175c-0.39-0.292-0.47-0.844-0.179-1.232l4.066-5.448
			c0.29-0.392,0.842-0.472,1.233-0.179c0.389,0.291,0.469,0.842,0.177,1.232l-4.064,5.448
			C43.516,44.583,43.249,44.706,42.979,44.706z"/>
	</g>
	<path fill="#F7453B" d="M14.512,33.632c-2.144,0-4.197,0.651-5.938,1.882c-3.381,2.392-4.919,6.859-3.825,11.119
		c0.034,0.133,0.071,0.258,0.107,0.387c0.711-1.234,1.553-2.385,2.583-3.373c3.063-2.941,7.442-4.193,11.688-4.281
		c1.743-0.036,3.476,0.11,5.199,0.356l-1.747-2.196C20.61,35.05,17.669,33.632,14.512,33.632z"/>
</g>
</svg>
