<?xml version="1.0" encoding="utf-8"?>
<!-- Generator: Adobe Illustrator 16.0.0, SVG Export Plug-In . SVG Version: 6.00 Build 0)  -->
<!DOCTYPE svg PUBLIC "-//W3C//DTD SVG 1.1//EN" "http://www.w3.org/Graphics/SVG/1.1/DTD/svg11.dtd">
<svg version="1.1" id="Слой_1" xmlns="http://www.w3.org/2000/svg" xmlns:xlink="http://www.w3.org/1999/xlink" x="0px" y="0px"
	 width="80px" height="80px" viewBox="0 0 80 80" enable-background="new 0 0 80 80" xml:space="preserve">
<g>
	<path fill="#6D6D6D" d="M37.455,78.066c-0.48,0-0.869-0.39-0.869-0.868V65.18h-6.667c-0.48,0-0.869-0.389-0.869-0.867
		c0-0.479,0.389-0.869,0.869-0.869h8.405v13.756C38.323,77.678,37.934,78.066,37.455,78.066z"/>
	<path fill="#6D6D6D" d="M33.245,80.143c-0.709,0-1.431-0.119-2.14-0.367c-2.65-0.92-4.363-3.314-4.363-6.104v-5.57
		c0-0.479,0.389-0.869,0.869-0.869c0.479,0,0.869,0.39,0.869,0.869v5.57c0,2.036,1.254,3.789,3.196,4.462
		c1.502,0.524,3.638,0.409,5.125-1.474c0.296-0.376,0.843-0.439,1.219-0.143c0.377,0.295,0.442,0.842,0.144,1.219
		C36.935,79.294,35.134,80.143,33.245,80.143z"/>
	<path fill="#6D6D6D" d="M22.407,67.854c-0.035,0-0.071,0-0.106,0c-1.425,0-2.868-0.61-3.95-1.682
		c-1.231-1.22-1.909-2.92-1.909-4.791v-3.676c0-0.479,0.389-0.869,0.868-0.869c0.48,0,0.869,0.391,0.869,0.869v3.676
		c0,1.403,0.496,2.666,1.395,3.557c0.767,0.76,1.773,1.172,2.78,1.179c1.04-0.002,2.031-0.419,2.798-1.179
		c0.899-0.891,1.395-2.152,1.395-3.557v-8.475h-5.322c-0.479,0-0.869-0.391-0.869-0.869s0.389-0.869,0.869-0.869h7.059v10.213
		c0,1.871-0.678,3.571-1.909,4.791C25.292,67.241,23.85,67.854,22.407,67.854z"/>
	<path fill="#6D6D6D" d="M41.816,80.143c-1.89,0-3.69-0.849-4.919-2.406c-0.297-0.375-0.232-0.922,0.143-1.219
		c0.376-0.297,0.923-0.232,1.221,0.144c1.487,1.883,3.624,1.997,5.125,1.474c1.938-0.673,3.194-2.426,3.194-4.462V66.62
		c0-0.794-0.646-1.438-1.438-1.438h-7.537c-0.481,0-0.869-0.39-0.869-0.869c0-0.479,0.388-0.869,0.869-0.869h7.537
		c1.75,0,3.176,1.426,3.176,3.178v7.053c0,2.788-1.713,5.184-4.362,6.104C43.246,80.021,42.525,80.143,41.816,80.143z"/>
	<path fill="#6D6D6D" d="M51.688,78.066c-1.89,0-3.688-0.849-4.92-2.405c-0.297-0.376-0.231-0.923,0.146-1.22
		s0.923-0.232,1.221,0.144c1.486,1.883,3.623,1.997,5.124,1.474c1.941-0.674,3.195-2.426,3.195-4.463v-7.254
		c0-0.683-0.555-1.236-1.237-1.236h-5.631c-0.479,0-0.868-0.391-0.868-0.869c0-0.479,0.389-0.868,0.868-0.868h5.631
		c1.642,0,2.976,1.334,2.976,2.975v7.255c0,2.788-1.713,5.185-4.363,6.104C53.118,77.945,52.396,78.066,51.688,78.066z"/>
	<path fill="#6D6D6D" d="M61.561,75.333c-1.892,0-3.691-0.849-4.92-2.405c-0.299-0.376-0.233-0.923,0.143-1.219
		c0.377-0.298,0.923-0.234,1.221,0.143c1.487,1.883,3.623,1.998,5.125,1.477c1.941-0.676,3.195-2.428,3.195-4.464v-7.255
		c0-0.683-0.557-1.237-1.236-1.237h-5.632c-0.479,0-0.869-0.39-0.869-0.868s0.39-0.869,0.869-0.869h5.632
		c1.639,0,2.975,1.334,2.975,2.977v7.254c0,2.787-1.713,5.185-4.362,6.104C62.988,75.214,62.268,75.333,61.561,75.333z"/>
	<path fill="#6D6D6D" d="M13.502,75.333c-0.709,0-1.431-0.119-2.14-0.366C8.712,74.048,7,71.65,7,68.863v-7.254
		c0-1.643,1.335-2.977,2.975-2.977h4.408c0.48,0,0.869,0.391,0.869,0.869s-0.389,0.868-0.869,0.868H9.975
		c-0.682,0-1.237,0.556-1.237,1.237v7.254c0,2.037,1.254,3.789,3.196,4.465c1.502,0.521,3.637,0.406,5.125-1.477
		c0.296-0.377,0.844-0.439,1.22-0.143c0.376,0.296,0.44,0.843,0.144,1.219C17.192,74.484,15.392,75.333,13.502,75.333z"/>
	<g>
		<path fill="#6D6D6D" d="M36.071,55.924c-0.222,0-0.444-0.084-0.614-0.254c-0.339-0.339-0.339-0.891,0-1.229l6.895-6.896
			c0.34-0.339,0.89-0.339,1.229,0c0.338,0.339,0.338,0.89,0,1.229l-6.895,6.895C36.515,55.84,36.293,55.924,36.071,55.924z"/>
		<path fill="#6D6D6D" d="M33.054,52.773c-0.153,0-0.31-0.039-0.451-0.127c-0.41-0.248-0.54-0.782-0.29-1.192l3.453-5.672
			c0.251-0.409,0.784-0.539,1.193-0.29c0.411,0.249,0.541,0.783,0.291,1.193l-3.453,5.672
			C33.633,52.627,33.347,52.773,33.054,52.773z"/>
		<path fill="#6D6D6D" d="M39.135,58.854c-0.294,0-0.579-0.147-0.744-0.416c-0.25-0.41-0.121-0.945,0.291-1.193l5.671-3.454
			c0.408-0.25,0.942-0.12,1.192,0.29c0.25,0.409,0.12,0.943-0.291,1.193l-5.672,3.453C39.444,58.813,39.288,58.854,39.135,58.854z"
			/>
	</g>
	<g>
		<path fill="#6D6D6D" d="M19.979,56.512l-1.681-0.588C15,54.77,12.173,51.46,10.919,47.286c-1.872-6.231,0.351-12.427,4.953-13.809
			c2.284-0.686,4.775-0.113,7.016,1.614c2.156,1.661,3.834,4.211,4.727,7.181c0.601,2.002,0.801,4.082,0.581,6.02
			c-0.054,0.477-0.485,0.82-0.961,0.766c-0.477-0.056-0.819-0.486-0.764-0.963c0.194-1.703,0.015-3.545-0.519-5.32
			c-0.789-2.625-2.252-4.863-4.123-6.306c-1.786-1.376-3.723-1.847-5.455-1.327c-3.686,1.107-5.385,6.332-3.79,11.645
			c0.864,2.875,2.542,5.269,4.575,6.63c-0.722-2.581-1.056-4.716-0.995-6.354c0.097-2.637,1.23-3.522,2.165-3.804
			c1.624-0.487,3.556,0.587,5.167,2.874c1.194,1.695,1.825,3.73,1.825,5.889c0,0.479-0.389,0.867-0.869,0.867
			c-0.479,0-0.869-0.389-0.869-0.867c0-1.797-0.521-3.487-1.507-4.889c-1.367-1.939-2.604-2.402-3.247-2.21
			c-0.708,0.213-0.896,1.313-0.928,2.203c-0.059,1.597,0.343,3.888,1.165,6.623c0.11,0.364,0.225,0.724,0.344,1.075L19.979,56.512z"
			/>
		<path fill="#6D6D6D" d="M22.62,36.861c-0.148,0-0.298-0.038-0.437-0.118c-0.414-0.242-0.554-0.773-0.313-1.188
			C32.897,16.619,55.029,6.253,60.471,3.927l-1.598-1.596c-30.555,9.272-41.856,32.124-41.967,32.354
			c-0.208,0.434-0.727,0.614-1.16,0.406c-0.432-0.208-0.614-0.728-0.406-1.16c0.115-0.239,11.875-24.024,43.533-33.415l0.496-0.147
			l4.199,4.199l-1.256,0.478c-0.264,0.101-26.688,10.344-38.94,31.383C23.21,36.707,22.919,36.861,22.62,36.861z"/>
		<path fill="#6D6D6D" d="M27.838,41.139c-0.692,0-1.346-0.011-1.959-0.029c-0.48-0.016-0.856-0.416-0.841-0.896
			c0.015-0.48,0.427-0.874,0.896-0.84c8.875,0.273,26.384-1.183,44.478-14.005l-0.271-2.158
			c-4.391,2.727-20.492,11.665-41.386,10.563c-0.479-0.025-0.847-0.435-0.822-0.914c0.024-0.479,0.433-0.842,0.913-0.821
			c23.897,1.257,41.306-10.896,41.479-11.019l1.183-0.84l0.758,5.998l-0.42,0.302C54.436,38.979,37.47,41.139,27.838,41.139z"/>
		<path fill="#6D6D6D" d="M16.739,41.044c-0.893,0-1.619-0.726-1.619-1.618c0-0.892,0.726-1.618,1.619-1.618
			c0.892,0,1.618,0.726,1.618,1.618C18.357,40.318,17.631,41.044,16.739,41.044z M16.739,39.307c-0.066,0-0.12,0.053-0.12,0.119
			c0,0.131,0.238,0.131,0.238,0C16.858,39.36,16.804,39.307,16.739,39.307z"/>
	</g>
	<path fill="#F7453B" d="M21.406,63.085c0.27,0.267,0.609,0.424,0.911,0.424c0.003,0,0.006,0,0.009,0h0.037h0.036
		c0.003,0,0.006,0,0.009,0c0.301,0,0.642-0.157,0.911-0.424c0.284-0.28,0.622-0.806,0.622-1.704v-3.314
		c-0.528,0.293-1.076,0.548-1.652,0.73c-0.486,0.154-0.994,0.253-1.504,0.286v2.298C20.784,62.279,21.122,62.805,21.406,63.085z"/>
</g>
</svg>
