<?xml version="1.0" encoding="utf-8"?>
<!-- Generator: Adobe Illustrator 16.0.0, SVG Export Plug-In . SVG Version: 6.00 Build 0)  -->
<!DOCTYPE svg PUBLIC "-//W3C//DTD SVG 1.1//EN" "http://www.w3.org/Graphics/SVG/1.1/DTD/svg11.dtd">
<svg version="1.1" id="Слой_1" xmlns="http://www.w3.org/2000/svg" xmlns:xlink="http://www.w3.org/1999/xlink" x="0px" y="0px"
	 width="80px" height="80px" viewBox="0 0 80 80" enable-background="new 0 0 80 80" xml:space="preserve">
<g>
	<path fill="#6D6D6D" d="M45.959,35.806h-1.436c-0.518,0-0.938-0.42-0.938-0.938c0-0.518,0.421-0.938,0.938-0.938h1.436
		c0.964,0,1.871-0.518,2.367-1.351c2.17-3.647,5.789-11.384,5.652-22.224c-0.033-2.6-1.299-5.077-3.387-6.625
		c-1.982-1.471-4.453-1.931-6.773-1.259c-0.178,0.051-0.355,0.109-0.534,0.173c-2.175,0.787-4.476,0.787-6.65,0
		c-0.178-0.063-0.355-0.122-0.531-0.172c-2.323-0.671-4.792-0.213-6.776,1.258c-2.087,1.549-3.353,4.026-3.385,6.625
		c-0.138,10.84,3.482,18.577,5.652,22.224c0.496,0.833,1.403,1.351,2.367,1.351h1.436c0.517,0,0.937,0.42,0.937,0.938
		c0,0.519-0.42,0.938-0.937,0.938H33.96c-1.622,0-3.146-0.869-3.979-2.269c-2.271-3.816-6.06-11.907-5.916-23.207
		c0.04-3.182,1.589-6.213,4.144-8.108c2.458-1.825,5.524-2.389,8.414-1.556c0.214,0.062,0.431,0.132,0.649,0.21
		c1.759,0.637,3.619,0.636,5.375,0.001c0.22-0.079,0.438-0.149,0.652-0.212c2.889-0.834,5.954-0.267,8.412,1.556
		c2.555,1.895,4.104,4.926,4.145,8.108c0.143,11.3-3.646,19.391-5.916,23.207C49.105,34.937,47.582,35.806,45.959,35.806z"/>
	<path fill="#6D6D6D" d="M39.96,44.171c-0.519,0-0.938-0.42-0.938-0.938V29.257c0-0.518,0.42-0.938,0.938-0.938
		s0.938,0.421,0.938,0.938v13.976C40.898,43.751,40.478,44.171,39.96,44.171z"/>
	<path fill="#6D6D6D" d="M47.996,48.406c-0.52,0-0.938-0.42-0.938-0.938v-4.541c0-0.36-0.295-0.653-0.654-0.653h-1.881
		c-0.519,0-0.938-0.42-0.938-0.938s0.419-0.939,0.938-0.939h1.881c1.395,0,2.529,1.135,2.529,2.531v4.541
		C48.934,47.986,48.514,48.406,47.996,48.406z"/>
	<path fill="#6D6D6D" d="M39.96,80.133c-1.259,0-2.429-0.58-3.293-1.636l-4.405-5.378c-0.823-1.004-1.276-2.328-1.276-3.729v-1.287
		c0-0.518,0.42-0.938,0.938-0.938c0.518,0,0.938,0.421,0.938,0.938v1.287c0,0.952,0.31,1.879,0.85,2.541l4.405,5.375
		c0.501,0.612,1.154,0.949,1.842,0.949c0.688,0,1.34-0.337,1.842-0.949l4.404-5.375c0.541-0.662,0.852-1.589,0.852-2.541v-8.42
		c0-0.519,0.42-0.938,0.938-0.938s0.938,0.42,0.938,0.938v8.42c0,1.399-0.453,2.725-1.276,3.729l-4.404,5.378
		C42.389,79.553,41.219,80.133,39.96,80.133z"/>
	<path fill="#6D6D6D" d="M31.924,55.539c-0.519,0-0.938-0.42-0.938-0.938V42.927c0-1.396,1.136-2.531,2.531-2.531h1.592
		c0.518,0,0.938,0.42,0.938,0.939s-0.42,0.938-0.938,0.938h-1.592c-0.361,0-0.654,0.293-0.654,0.653v11.675
		C32.863,55.119,32.442,55.539,31.924,55.539z"/>
	<g>
		<path fill="#6D6D6D" d="M28.675,56.98c-0.36,0-0.703-0.207-0.858-0.558c-0.21-0.474,0.003-1.028,0.478-1.237l22.57-10.019
			c0.473-0.21,1.027,0.004,1.238,0.478c0.209,0.474-0.004,1.027-0.479,1.237L29.056,56.9C28.931,56.956,28.803,56.98,28.675,56.98z"
			/>
		<path fill="#6D6D6D" d="M28.675,63.732c-0.36,0-0.703-0.207-0.858-0.559c-0.21-0.473,0.003-1.027,0.478-1.238l22.57-10.017
			c0.473-0.211,1.027,0.002,1.238,0.478c0.209,0.474-0.004,1.027-0.479,1.237L29.056,63.652
			C28.931,63.707,28.803,63.732,28.675,63.732z"/>
		<path fill="#6D6D6D" d="M28.675,70.484c-0.36,0-0.703-0.209-0.858-0.56c-0.21-0.473,0.003-1.026,0.478-1.235l22.57-10.018
			c0.473-0.213,1.027,0.002,1.238,0.477c0.209,0.474-0.004,1.028-0.479,1.238L29.056,70.402
			C28.931,70.458,28.803,70.484,28.675,70.484z"/>
	</g>
	<path fill="#6D6D6D" d="M39.96,30.195c-3.608,0-6.543-2.936-6.543-6.543s2.936-6.543,6.543-6.543c3.608,0,6.543,2.935,6.543,6.543
		S43.568,30.195,39.96,30.195z M39.96,18.985c-2.573,0-4.667,2.093-4.667,4.667c0,2.574,2.094,4.667,4.667,4.667
		c2.572,0,4.667-2.093,4.667-4.667C44.627,21.078,42.532,18.985,39.96,18.985z"/>
	<path fill="#6D6D6D" d="M70.014,80.133c-0.518,0-0.938-0.42-0.938-0.938V56.428c0-7.805-6.35-14.154-14.155-14.154
		c-0.519,0-0.938-0.42-0.938-0.938s0.42-0.939,0.938-0.939c8.841,0,16.032,7.192,16.032,16.032v22.768
		C70.952,79.713,70.532,80.133,70.014,80.133z"/>
	<path fill="#6D6D6D" d="M10.63,80.133c-0.519,0-0.938-0.42-0.938-0.938V56.428c0-8.84,7.192-16.032,16.032-16.032
		c0.518,0,0.938,0.42,0.938,0.939s-0.42,0.938-0.938,0.938c-7.805,0-14.155,6.351-14.155,14.154v22.768
		C11.568,79.713,11.148,80.133,10.63,80.133z"/>
	<path fill="#F7453B" d="M48.915,5.989c-0.567-0.422-1.604-1.012-2.958-1.012c-0.423,0-0.876,0.057-1.355,0.196
		c-0.127,0.037-0.244,0.075-0.359,0.116c-1.381,0.5-2.83,0.749-4.28,0.749c-1.452,0-2.903-0.249-4.285-0.75
		c-0.115-0.041-0.23-0.079-0.346-0.112c-0.484-0.141-0.942-0.199-1.368-0.199c-1.354,0-2.389,0.589-2.958,1.011
		c-1.385,1.028-2.227,2.673-2.249,4.401c-0.032,2.537,0.166,4.893,0.502,7.053c2.666-2.874,6.473-4.676,10.703-4.676
		c4.23,0,8.037,1.802,10.703,4.677c0.335-2.16,0.533-4.517,0.5-7.054C51.143,8.663,50.301,7.018,48.915,5.989z"/>
</g>
</svg>
