<?xml version="1.0" encoding="utf-8"?>
<!-- Generator: Adobe Illustrator 16.0.0, SVG Export Plug-In . SVG Version: 6.00 Build 0)  -->
<!DOCTYPE svg PUBLIC "-//W3C//DTD SVG 1.1//EN" "http://www.w3.org/Graphics/SVG/1.1/DTD/svg11.dtd">
<svg version="1.1" id="Слой_1" xmlns="http://www.w3.org/2000/svg" xmlns:xlink="http://www.w3.org/1999/xlink" x="0px" y="0px"
	 width="80px" height="80px" viewBox="0 0 80 80" enable-background="new 0 0 80 80" xml:space="preserve">
<g>
	<g>
		<path fill="#6D6D6D" d="M39.254,18.662c-0.272,0-0.537-0.137-0.689-0.386l-5.19-8.516c-0.231-0.38-0.111-0.875,0.269-1.107
			c0.379-0.231,0.875-0.112,1.106,0.269l5.19,8.516c0.231,0.38,0.111,0.875-0.269,1.107C39.542,18.624,39.397,18.662,39.254,18.662z
			"/>
		<path fill="#6D6D6D" d="M35.396,20.9c-0.206,0-0.412-0.079-0.569-0.236l-4.805-4.8c-0.314-0.314-0.315-0.824,0-1.139
			c0.314-0.314,0.824-0.315,1.139,0l4.805,4.8c0.314,0.314,0.314,0.824,0,1.139C35.808,20.821,35.602,20.9,35.396,20.9z"/>
		<path fill="#6D6D6D" d="M42.902,16.324c-0.342,0-0.656-0.218-0.768-0.561l-2.064-6.471c-0.136-0.424,0.099-0.876,0.522-1.012
			c0.423-0.138,0.876,0.098,1.013,0.522l2.063,6.471c0.136,0.424-0.099,0.876-0.522,1.012
			C43.066,16.313,42.984,16.324,42.902,16.324z"/>
	</g>
	<path fill="#6D6D6D" d="M37.828,73.113c-0.241,0-0.484-0.026-0.726-0.079c-1.239-0.271-2.211-1.199-2.539-2.423
		c-0.761-2.84-2.027-7.161-3.74-11.608c-0.892-2.313-2.943-3.138-4.565-3.138c-1.622,0-3.673,0.824-4.564,3.138
		c-1.712,4.445-2.979,8.767-3.74,11.606c-0.327,1.223-1.297,2.147-2.533,2.418c-1.237,0.268-2.51-0.168-3.318-1.144
		c-6.236-7.524-6.905-15.604-6.75-19.752c0.041-1.079-0.309-2.112-0.984-2.909c-1.347-1.592-2.393-3.812-3.108-6.599
		C-0.29,36.586,1.948,30.21,6.826,26.76c2.499-1.767,5.441-2.7,8.51-2.7c4.196,0,8.125,1.75,10.922,4.832
		c2.797-3.082,6.725-4.832,10.921-4.832c1.38,0,2.749,0.19,4.068,0.568c0.428,0.122,0.675,0.567,0.554,0.996
		c-0.123,0.428-0.57,0.675-0.996,0.553c-1.175-0.336-2.395-0.506-3.625-0.506c-4.028,0-7.78,1.811-10.291,4.966l-0.63,0.792
		l-0.63-0.792c-2.512-3.156-6.263-4.967-10.292-4.967c-2.734,0-5.355,0.832-7.58,2.404c-4.337,3.067-6.32,8.754-4.935,14.15
		c0.645,2.514,1.605,4.572,2.778,5.957c0.936,1.104,1.42,2.53,1.364,4.012c-0.147,3.918,0.485,11.552,6.379,18.662
		c0.429,0.519,1.078,0.74,1.734,0.599c0.654-0.144,1.147-0.614,1.321-1.261c0.771-2.879,2.055-7.258,3.792-11.77
		c0.991-2.572,3.316-4.171,6.068-4.171s5.078,1.599,6.069,4.171c1.738,4.512,3.021,8.893,3.792,11.771
		c0.174,0.647,0.67,1.121,1.328,1.266c0.65,0.141,1.289-0.077,1.711-0.585c5.913-7.122,6.545-14.771,6.396-18.692
		c-0.056-1.479,0.426-2.895,1.357-3.992c1.496-1.762,2.348-4.243,2.798-6.017c0.737-2.905,0.517-5.996-0.628-8.702
		c-0.173-0.41,0.02-0.882,0.428-1.056c0.409-0.171,0.885,0.019,1.057,0.429c1.281,3.028,1.531,6.482,0.705,9.726
		c-0.717,2.816-1.771,5.06-3.131,6.662c-0.67,0.789-1.017,1.813-0.976,2.887c0.157,4.154-0.511,12.25-6.766,19.783
		C39.752,72.682,38.811,73.113,37.828,73.113z"/>
	<path fill="#6D6D6D" d="M28.816,35.418c-0.329,0-0.638-0.203-0.757-0.53c-0.762-2.089-2.42-4.237-2.437-4.259
		c-0.273-0.351-0.21-0.857,0.142-1.13c0.351-0.273,0.857-0.21,1.13,0.141c0.074,0.095,1.829,2.365,2.679,4.696
		c0.152,0.417-0.063,0.88-0.481,1.033C29.001,35.403,28.908,35.418,28.816,35.418z"/>
	<g>
		<g>
			<path fill="#6D6D6D" d="M53.518,29.093c-0.207,0-0.414-0.08-0.57-0.236l-7.62-7.62c-0.284-0.284-0.315-0.732-0.075-1.053
				l8.364-11.152c0.022-0.031,0.048-0.06,0.073-0.086c1.047-1.046,2.438-1.622,3.916-1.622c1.479,0,2.869,0.576,3.916,1.622
				l3.717,3.717c2.158,2.158,2.158,5.671,0,7.83c-0.026,0.027-0.055,0.052-0.086,0.075L54,28.932
				C53.855,29.041,53.686,29.093,53.518,29.093z M46.959,20.592l6.632,6.632l10.546-7.909c1.493-1.534,1.48-3.996-0.037-5.514
				l-3.719-3.717c-0.74-0.741-1.729-1.149-2.775-1.149c-1.029,0-2,0.394-2.736,1.111L46.959,20.592z"/>
			<path fill="#6D6D6D" d="M42.003,32.986c-0.207,0-0.412-0.079-0.569-0.235c-0.313-0.315-0.313-0.825,0-1.14l3.846-3.846
				c0.316-0.314,0.826-0.314,1.14,0c0.315,0.315,0.315,0.825,0,1.139l-3.846,3.846C42.415,32.907,42.209,32.986,42.003,32.986z"/>
			<path fill="#6D6D6D" d="M79.328,32.096c-0.145,0-0.292-0.039-0.424-0.121c-4.895-3.035-9.51-6.552-13.719-10.455
				c-0.697-0.646-1.08-1.021-1.08-1.021c-0.318-0.312-0.324-0.822-0.014-1.139c0.311-0.319,0.821-0.324,1.139-0.013
				c0.006,0.005,0.377,0.368,1.049,0.991c4.135,3.833,8.666,7.286,13.475,10.266c0.378,0.234,0.494,0.731,0.26,1.109
				C79.861,31.96,79.598,32.096,79.328,32.096z"/>
			<path fill="#6D6D6D" d="M70.771,41.313c-0.207,0-0.412-0.078-0.569-0.235L55.824,26.699c-0.314-0.314-0.314-0.824,0-1.139
				s0.824-0.315,1.14,0L71.34,39.937c0.314,0.315,0.314,0.825,0,1.139C71.184,41.234,70.977,41.313,70.771,41.313z"/>
			<path fill="#6D6D6D" d="M47.754,30.572c-0.58,0-1.126-0.226-1.537-0.637l-1.969-1.97c-0.411-0.41-0.637-0.956-0.637-1.536
				c0-0.58,0.226-1.126,0.637-1.536l2.936-2.937c0.315-0.315,0.825-0.315,1.141,0c0.314,0.314,0.314,0.824,0,1.139l-2.938,2.937
				c-0.105,0.106-0.164,0.247-0.164,0.397c0,0.15,0.059,0.291,0.164,0.397l1.971,1.97c0.213,0.213,0.582,0.213,0.795,0l2.937-2.936
				c0.315-0.315,0.825-0.315,1.14,0c0.314,0.314,0.314,0.824,0,1.139l-2.938,2.936C48.88,30.346,48.335,30.572,47.754,30.572z"/>
		</g>
	</g>
	<path fill="#6D6D6D" d="M42.003,38.209c-3.324,0-6.029-2.705-6.029-6.029c0-0.445,0.36-0.805,0.806-0.805
		c0.445,0,0.805,0.36,0.805,0.805c0,2.436,1.982,4.417,4.418,4.417c0.445,0,0.806,0.361,0.806,0.806
		C42.809,37.849,42.448,38.209,42.003,38.209z"/>
	<path fill="#F7453B" d="M15.336,28.087c-2.232,0-4.371,0.678-6.185,1.961c-3.524,2.492-5.127,7.144-3.99,11.576
		c0.234,0.914,0.513,1.744,0.825,2.487c0.434-1.568,0.979-3.107,1.758-4.535c1.006-1.847,2.424-3.51,4.25-4.556
		c2.259-1.296,4.954-1.561,7.558-1.617c1.769-0.038,3.539,0.015,5.304,0.144l-1.119-1.406
		C21.686,29.565,18.625,28.087,15.336,28.087z"/>
</g>
</svg>
