<?xml version="1.0" encoding="utf-8"?>
<!-- Generator: Adobe Illustrator 16.0.0, SVG Export Plug-In . SVG Version: 6.00 Build 0)  -->
<!DOCTYPE svg PUBLIC "-//W3C//DTD SVG 1.1//EN" "http://www.w3.org/Graphics/SVG/1.1/DTD/svg11.dtd">
<svg version="1.1" id="Слой_1" xmlns="http://www.w3.org/2000/svg" xmlns:xlink="http://www.w3.org/1999/xlink" x="0px" y="0px"
	 width="80px" height="80px" viewBox="0 0 80 80" enable-background="new 0 0 80 80" xml:space="preserve">
<g>
	<g>
		<path fill="#6D6D6D" d="M64.918,18.099c-0.243,0-0.482-0.092-0.668-0.277c-0.369-0.369-0.369-0.967,0-1.337l7.122-7.122
			c0.369-0.37,0.968-0.37,1.338,0c0.367,0.369,0.367,0.967,0,1.336l-7.123,7.123C65.402,18.007,65.159,18.099,64.918,18.099z"/>
		<path fill="#6D6D6D" d="M61.802,14.846c-0.168,0-0.337-0.044-0.491-0.138c-0.444-0.271-0.588-0.853-0.314-1.299l3.566-5.861
			c0.271-0.445,0.854-0.586,1.299-0.315c0.445,0.271,0.588,0.853,0.315,1.298l-3.567,5.861
			C62.434,14.685,62.12,14.846,61.802,14.846z"/>
		<path fill="#6D6D6D" d="M68.083,21.125c-0.319,0-0.63-0.161-0.81-0.454c-0.271-0.446-0.131-1.027,0.314-1.299l5.86-3.568
			c0.444-0.272,1.026-0.13,1.3,0.315c0.271,0.446,0.13,1.028-0.316,1.299l-5.858,3.568C68.42,21.081,68.251,21.125,68.083,21.125z"
			/>
	</g>
	<path fill="#6D6D6D" d="M14.862,18.099c-0.242,0-0.484-0.092-0.669-0.277L7.071,10.7c-0.369-0.369-0.369-0.967,0-1.336
		c0.369-0.37,0.967-0.37,1.336,0l7.122,7.122c0.37,0.37,0.37,0.968,0,1.337C15.345,18.007,15.104,18.099,14.862,18.099z"/>
	<path fill="#6D6D6D" d="M17.979,14.846c-0.319,0-0.63-0.161-0.808-0.453l-3.568-5.861c-0.271-0.446-0.13-1.027,0.316-1.298
		c0.445-0.272,1.027-0.13,1.298,0.315l3.568,5.861c0.272,0.446,0.131,1.028-0.316,1.299C18.315,14.802,18.146,14.846,17.979,14.846z
		"/>
	<path fill="#6D6D6D" d="M11.698,21.125c-0.167,0-0.337-0.044-0.491-0.138l-5.86-3.568c-0.445-0.271-0.587-0.853-0.315-1.299
		c0.272-0.445,0.854-0.587,1.299-0.315l5.859,3.568c0.446,0.271,0.587,0.853,0.316,1.299C12.328,20.964,12.017,21.125,11.698,21.125
		z"/>
	<path fill="#6D6D6D" d="M50.859,63.68c-1.534,0-2.883-1.029-3.276-2.506c-0.72-2.689-1.919-6.777-3.538-10.984
		c-0.813-2.105-2.679-2.855-4.156-2.855c-1.479,0-3.346,0.75-4.157,2.855c-1.621,4.211-2.819,8.297-3.539,10.982
		c-0.4,1.496-1.714,2.502-3.269,2.502l0,0c-1.002,0-1.947-0.447-2.592-1.226c-5.948-7.177-6.586-14.884-6.438-18.841
		c0.037-0.978-0.279-1.912-0.889-2.633c-1.295-1.532-2.299-3.659-2.984-6.327c-1.488-5.796,0.66-11.917,5.346-15.229
		c2.397-1.696,5.223-2.592,8.17-2.592c3.962,0,7.674,1.625,10.351,4.493c2.674-2.868,6.387-4.493,10.35-4.493
		c2.947,0,5.771,0.896,8.17,2.592c4.675,3.305,6.828,9.405,5.357,15.179c-0.686,2.697-1.695,4.845-3.004,6.384
		c-0.605,0.715-0.919,1.643-0.883,2.611c0.15,3.965-0.484,11.686-6.452,18.873C52.789,63.238,51.854,63.68,50.859,63.68z
		 M39.889,45.441c2.685,0,4.954,1.56,5.919,4.068c1.649,4.283,2.867,8.441,3.601,11.174c0.204,0.764,0.876,1.104,1.45,1.104
		c0.436,0,0.83-0.188,1.113-0.528c5.564-6.703,6.159-13.898,6.02-17.593c-0.057-1.442,0.417-2.831,1.328-3.907
		c1.396-1.644,2.191-3.968,2.615-5.629c1.276-5.021-0.58-10.313-4.619-13.168c-2.076-1.469-4.523-2.245-7.078-2.245
		c-3.762,0-7.266,1.69-9.61,4.638l-0.739,0.929l-0.74-0.929c-2.345-2.948-5.848-4.638-9.611-4.638c-2.555,0-5.002,0.776-7.079,2.245
		c-4.049,2.863-5.9,8.175-4.606,13.216c0.604,2.355,1.501,4.282,2.595,5.575c0.916,1.08,1.39,2.475,1.336,3.926
		c-0.139,3.686,0.456,10.869,6.003,17.563c0.289,0.349,0.693,0.54,1.137,0.54c0.571,0,1.239-0.339,1.442-1.101
		c0.731-2.729,1.95-6.887,3.6-11.172C34.935,47.001,37.204,45.441,39.889,45.441z"/>
	<path fill="#6D6D6D" d="M42.313,27.956c-0.386,0-0.748-0.238-0.889-0.622c-0.711-1.952-2.266-3.967-2.282-3.987
		c-0.32-0.411-0.245-1.005,0.167-1.326c0.411-0.319,1.004-0.246,1.325,0.167c0.071,0.09,1.751,2.264,2.566,4.5
		c0.179,0.49-0.073,1.033-0.563,1.211C42.529,27.937,42.421,27.956,42.313,27.956z"/>
	<path fill="#6D6D6D" d="M27.652,71.657c-1.233,0-2.448-0.283-3.565-0.845c-5.38-2.707-8.084-10.891-9.405-17.28
		c-0.348-1.685-1.865-2.907-3.606-2.907H0.945C0.423,50.625,0,50.202,0,49.68c0-0.521,0.423-0.945,0.945-0.945h10.131
		c2.633,0,4.928,1.857,5.457,4.416c1.013,4.896,3.45,13.481,8.403,15.974c0.862,0.433,2.64,1.046,4.849,0.276
		c2.764-0.965,5.299-3.793,7.332-8.178c0.505-1.09,1.568-1.766,2.773-1.766l0,0c1.206,0,2.268,0.676,2.773,1.766
		c2.032,4.385,4.567,7.213,7.332,8.178c2.21,0.771,3.987,0.156,4.849-0.276c4.953-2.491,7.391-11.077,8.404-15.974
		c0.527-2.559,2.822-4.416,5.456-4.416h10.131c0.522,0,0.944,0.425,0.944,0.945c0,0.522-0.422,0.945-0.944,0.945H68.704
		c-1.741,0-3.257,1.223-3.606,2.907c-1.32,6.391-4.023,14.573-9.404,17.28c-1.95,0.979-4.195,1.11-6.32,0.371
		c-3.305-1.154-6.139-4.235-8.424-9.166c-0.196-0.42-0.59-0.672-1.058-0.672l0,0c-0.468,0-0.863,0.252-1.059,0.672
		c-2.285,4.931-5.12,8.012-8.424,9.166C29.5,71.5,28.571,71.656,27.652,71.657z"/>
	<path fill="#F7453B" d="M27.598,28.006c2.665-1.967,6.04-2.775,9.354-2.858l-0.021-0.026c-1.805-2.268-4.499-3.568-7.392-3.568
		c-1.964,0-3.846,0.596-5.442,1.725c-3.095,2.188-4.5,6.286-3.496,10.196c0.365,1.424,0.855,2.662,1.413,3.594
		C22.881,33.52,24.682,30.161,27.598,28.006z"/>
</g>
</svg>
