<svg id="Capa_1" enable-background="new 0 0 512 512" height="512" viewBox="0 0 512 512" width="512" xmlns="http://www.w3.org/2000/svg"><g><path d="m318.732 84.07c-2.582-2.395-5.944-3.714-9.467-3.714h-66.602c-10.924 0-19.811 8.887-19.811 19.811v31.024c0 10.924 8.887 19.811 19.811 19.811h112.757c5.767 0 10.853-3.469 12.959-8.837 2.105-5.367.733-11.369-3.494-15.289zm-76.068 51.932c-2.652 0-4.811-2.158-4.811-4.811v-31.024c0-2.652 2.158-4.811 4.811-4.811h66.179l43.825 40.646z"/><path d="m76.678 133.225v-35.09c0-4.143-3.357-7.5-7.5-7.5s-7.5 3.357-7.5 7.5v35.09c0 4.143 3.357 7.5 7.5 7.5s7.5-3.358 7.5-7.5z"/><path d="m403.184 198.848c45.859 0 83.169-37.309 83.169-83.168 0-15.11-4.102-29.914-11.86-42.812-2.136-3.551-6.744-4.695-10.293-2.561-3.55 2.135-4.695 6.743-2.561 10.293 6.354 10.563 9.714 22.694 9.714 35.08 0 37.588-30.58 68.168-68.169 68.168h-280.607c-4.544-4.143-6.959-8.236-6.959-14.082 0-9.189 6.022-13.942 15.85-20.937 9.868-7.024 22.15-15.766 22.15-33.156s-12.282-26.13-22.151-33.153c-9.826-6.993-15.849-11.745-15.849-20.933 0-5.845 2.414-9.936 6.956-14.077h280.609c14.562 0 28.461 4.539 40.196 13.125 1.335.978 2.886 1.448 4.423 1.448 2.311 0 4.59-1.064 6.059-3.072 2.446-3.343 1.719-8.035-1.624-10.481-14.323-10.48-31.286-16.02-49.054-16.02h-266.99c1.905-4.954 2.102-10.531.319-15.972-3.292-10.047-12.233-16.538-22.778-16.538h-56.151c-17.61 0-31.936 14.326-31.936 31.937v118.197c0 4.143 3.357 7.5 7.5 7.5s7.5-3.357 7.5-7.5v-118.197c0-9.339 7.598-16.937 16.936-16.937h56.151c4.784 0 7.541 3.207 8.524 6.209.468 1.427 1.624 6.354-3.122 9.838-11.086 8.141-18.518 16.746-18.518 30.54 0 17.39 12.282 26.13 22.151 33.153 9.826 6.993 15.849 11.745 15.849 20.933s-6.022 13.941-15.849 20.936c-9.869 7.024-22.151 15.766-22.151 33.157 0 13.868 7.54 22.482 18.517 30.543 4.747 3.486 3.591 8.413 3.123 9.84-.984 3.002-3.741 6.21-8.526 6.21h-56.149c-9.338 0-16.936-7.598-16.936-16.936v-19.302c0-4.143-3.357-7.5-7.5-7.5s-7.5 3.357-7.5 7.5v19.302c0 17.609 14.326 31.936 31.936 31.936h56.149c10.546 0 19.487-6.491 22.78-16.538 1.783-5.441 1.586-11.018-.319-15.973h64.279v25.621c0 2.957-1.029 5.848-2.897 8.139-7.396 9.073-8.381 21.479-2.508 31.605 5.076 8.752 14.175 13.903 24.008 13.903 1.543 0 3.104-.127 4.67-.386l6.177-1.024c-9.554 21.548-4.481 47.727 14.209 63.98l4.713 4.098c14.803 12.872 18.147 34.379 7.953 51.139l-2.84 4.671c-4.264 7.009-6.861 14.697-7.72 22.852-.434 4.119 2.555 7.811 6.674 8.244 4.114.435 7.812-2.554 8.244-6.674.624-5.932 2.514-11.526 5.617-16.627l2.841-4.671c14.004-23.024 9.408-52.569-10.927-70.252l-4.712-4.098c-16.693-14.517-18.469-39.911-3.958-56.609 14.364-16.531 17.592-40.017 8.186-59.819l-6.693-14.091h59.029c-.083 3.941-13.597 67.751 14.964 144.156 13.309 35.601 18.981 72.892 16.861 110.838l-.773 13.833c-3.41 1.283-6.934 2.481-10.568 3.589-19.208 5.858-39.739 1.525-54.998-10.655-3.23-2.579-6.034-5.632-8.334-9.074-2.302-3.445-6.96-4.373-10.402-2.07-3.444 2.301-4.371 6.958-2.07 10.402 3.158 4.728 7.01 8.921 11.448 12.465 3.294 2.63 6.771 4.95 10.385 6.965v11.536c0 11.672 9.495 21.167 21.167 21.167h49.969c11.672 0 21.167-9.495 21.167-21.167v-19.586c2.836-1.611 5.586-3.281 8.21-5.033 21.248-14.196 30.576-40.268 23.213-64.876l-37.489-125.276c-7.893-26.375-3.818-54.296 11.127-77.214h28.769zm-181.892 64.084c-6.477 1.08-11.09-2.521-13.249-6.245-2.159-3.723-2.988-9.514 1.159-14.601 4.043-4.961 6.271-11.217 6.271-17.617v-25.621h19.429l9.751 20.527c6.244 13.145 4.823 28.51-3.414 40.249zm133.061 227.901c0 3.4-2.767 6.167-6.167 6.167h-49.969c-3.4 0-6.167-2.767-6.167-6.167v-5.175c7.012 2.111 14.298 3.192 21.624 3.192 7.278 0 14.597-1.064 21.724-3.237 6.691-2.041 13.028-4.382 18.955-6.936zm32.052-85.194c5.464 18.258-1.438 37.589-17.174 48.103-3.812 2.547-7.905 4.925-12.238 7.143l.347-6.206c2.236-40.03-3.748-79.37-17.787-116.927-27.206-72.777-13.902-136.734-13.85-138.903h31.284c-13.324 24.931-16.319 53.951-8.071 81.514z"/></g></svg>