<?xml version="1.0" encoding="utf-8"?>
<!-- Generator: Adobe Illustrator 16.0.0, SVG Export Plug-In . SVG Version: 6.00 Build 0)  -->
<!DOCTYPE svg PUBLIC "-//W3C//DTD SVG 1.1//EN" "http://www.w3.org/Graphics/SVG/1.1/DTD/svg11.dtd">
<svg version="1.1" id="Слой_1" xmlns="http://www.w3.org/2000/svg" xmlns:xlink="http://www.w3.org/1999/xlink" x="0px" y="0px"
	 width="80px" height="80px" viewBox="0 0 80 80" enable-background="new 0 0 80 80" xml:space="preserve">
<g>
	<path fill="#6D6D6D" d="M44.073,31.514c-2.574,0-4.668-2.094-4.668-4.668v-6.227c0-4.22,1.265-8.286,3.658-11.761l3.326-4.832
		c1.639-2.379,4.34-3.8,7.229-3.8c4.84,0,8.776,3.938,8.776,8.777v9.073c0,0.5-0.405,0.905-0.904,0.905
		c-0.5,0-0.904-0.405-0.904-0.905V9.003c0-3.842-3.125-6.967-6.968-6.967c-2.292,0-4.438,1.127-5.739,3.016l-3.326,4.832
		c-2.184,3.172-3.337,6.883-3.337,10.735v6.227c0,1.577,1.283,2.859,2.858,2.859c0.499,0,0.904,0.405,0.904,0.904
		C44.979,31.109,44.572,31.514,44.073,31.514z"/>
	<path fill="#6D6D6D" d="M63.146,52.077h-2.836c-0.502,0-0.906-0.405-0.906-0.904s0.404-0.905,0.906-0.905h2.836
		c1.576,0,2.857-1.281,2.857-2.857V29.567c0-3.842-3.125-6.967-6.968-6.967c-2.292,0-4.438,1.127-5.737,3.016l-3.326,4.832
		c-2.186,3.172-3.339,6.883-3.339,10.733v6.228c0,1.577,1.282,2.858,2.858,2.858h2.938c0.5,0,0.904,0.405,0.904,0.904
		s-0.404,0.904-0.904,0.904h-2.938c-2.574,0-4.669-2.094-4.669-4.668v-6.227c0-4.221,1.266-8.287,3.657-11.761l3.326-4.832
		c1.639-2.379,4.34-3.799,7.229-3.799c4.84,0,8.776,3.938,8.776,8.776v17.842C67.813,49.982,65.721,52.077,63.146,52.077z"/>
	<path fill="#6D6D6D" d="M36.546,31.514H22.893c-2.574,0-4.668-2.094-4.668-4.668V9.003c0-4.839,3.938-8.777,8.776-8.777
		c2.889,0,5.591,1.421,7.229,3.8l3.327,4.832c1.705,2.476,3.123,6.681,3.642,9.555c0.089,0.492-0.237,0.962-0.728,1.051
		c-0.49,0.09-0.963-0.237-1.053-0.729c-0.474-2.618-1.81-6.609-3.352-8.851L32.74,5.052c-1.3-1.889-3.445-3.016-5.739-3.016
		c-3.842,0-6.967,3.125-6.967,6.967v17.842c0,1.577,1.282,2.859,2.859,2.859h13.653c1.576,0,2.859-1.282,2.859-2.859
		c0-0.5,0.405-0.905,0.905-0.905c0.499,0,0.905,0.405,0.905,0.905C41.215,29.419,39.12,31.514,36.546,31.514z"/>
	<path fill="#6D6D6D" d="M72.986,27.598h-2.822c-0.501,0-0.905-0.405-0.905-0.905s0.404-0.904,0.905-0.904h2.822
		c1.443,0,2.617-1.174,2.617-2.616V12.411c0-2.384-1.01-4.494-2.844-5.941c-1.871-1.478-4.33-2.04-6.574-1.505
		c-0.485,0.118-0.974-0.184-1.088-0.67c-0.117-0.486,0.182-0.974,0.67-1.09c2.777-0.664,5.813,0.027,8.113,1.845
		c2.277,1.798,3.532,4.413,3.532,7.362v10.761C77.414,25.613,75.428,27.598,72.986,27.598z"/>
	<path fill="#6D6D6D" d="M18.924,27.598H7.426C4.985,27.598,3,25.613,3,23.172V12.411C3,9.514,4.217,6.93,6.426,5.134
		C8.663,3.316,11.644,2.573,14.4,3.15c0.489,0.103,0.803,0.582,0.701,1.071c-0.103,0.489-0.583,0.802-1.071,0.701
		C11.801,4.455,9.386,5.06,7.567,6.538c-1.778,1.445-2.758,3.531-2.758,5.873v10.761c0,1.442,1.174,2.616,2.617,2.616h11.498
		c0.5,0,0.905,0.405,0.905,0.904S19.424,27.598,18.924,27.598z"/>
	<g>
		<path fill="#6D6D6D" d="M50.184,58.813c-0.231,0-0.465-0.088-0.641-0.265c-0.354-0.353-0.354-0.926,0-1.278l6.16-6.16v-7.87
			c0-0.499,0.404-0.904,0.904-0.904c0.498,0,0.904,0.405,0.904,0.904v8.243c0,0.24-0.096,0.472-0.266,0.642l-6.426,6.425
			C50.646,58.725,50.414,58.813,50.184,58.813z"/>
		<path fill="#6D6D6D" d="M35.5,79.85c-1.2,0-2.327-0.469-3.176-1.316l-2.767-2.768c-1.75-1.75-1.75-4.6,0-6.351L41.66,57.314
			c0.354-0.354,0.925-0.354,1.279,0c0.352,0.354,0.352,0.926,0,1.278L30.837,70.695c-0.507,0.507-0.786,1.179-0.786,1.896
			c0,0.716,0.279,1.39,0.786,1.896l2.767,2.769c0.507,0.506,1.18,0.785,1.896,0.785s1.389-0.278,1.894-0.785l12.103-12.103
			c0.354-0.354,0.925-0.354,1.278,0c0.354,0.354,0.354,0.927,0,1.279L38.675,78.532C37.828,79.381,36.699,79.85,35.5,79.85z"/>
		<path fill="#6D6D6D" d="M50.089,66.745c-0.11,0-0.226-0.021-0.334-0.065c-0.465-0.184-0.69-0.709-0.507-1.174l2.063-5.188
			l-3.537-3.539l-3.91,1.557l2.945,2.946c0.354,0.354,0.354,0.925,0,1.278c-0.354,0.354-0.926,0.354-1.279,0l-3.918-3.918
			c-0.215-0.216-0.31-0.523-0.248-0.822c0.063-0.299,0.271-0.545,0.555-0.658l5.741-2.282c0.336-0.134,0.719-0.056,0.975,0.2
			l4.378,4.379c0.256,0.255,0.334,0.639,0.2,0.975l-2.282,5.74C50.789,66.529,50.449,66.745,50.089,66.745z"/>
	</g>
	<path fill="#F7453B" d="M59.036,25.314c-1.399,0-2.708,0.688-3.503,1.841l-3.326,4.832c-1.662,2.414-2.624,5.194-2.818,8.099
		c1.859-1.262,3.729-2.502,5.83-3.267c2.567-0.935,5.346-1.098,8.07-0.77v-6.483C63.289,27.222,61.382,25.314,59.036,25.314z"/>
</g>
</svg>
