<?xml version="1.0" encoding="iso-8859-1"?>
<!-- Generator: Adobe Illustrator 19.0.0, SVG Export Plug-In . SVG Version: 6.00 Build 0)  -->
<svg version="1.1" id="Capa_1" xmlns="http://www.w3.org/2000/svg" xmlns:xlink="http://www.w3.org/1999/xlink" x="0px" y="0px"
	 viewBox="0 0 511.997 511.997" style="enable-background:new 0 0 511.997 511.997;" xml:space="preserve">
<g>
	<g>
		<path d="M478.507,88.622C403.691,69.224,328.435,39.018,260.876,1.27c-3.031-1.694-6.724-1.694-9.755,0
			C181.62,40.099,110.432,68.672,33.489,88.622c-4.41,1.144-7.49,5.124-7.49,9.68v110.393c0,113.534,55.292,188.636,101.676,231.646
			c49.757,46.139,107.459,71.656,128.324,71.656c20.863,0,78.565-25.517,128.323-71.656
			c46.384-43.011,101.676-118.113,101.676-231.646V98.302C485.998,93.747,482.917,89.766,478.507,88.622z M370.723,425.677
			c-27.557,25.553-54.336,41.685-71.948,50.718c-22.319,11.447-37.81,15.603-42.775,15.603c-4.966,0-20.457-4.155-42.776-15.603
			c-17.612-9.034-44.392-25.165-71.949-50.718C97.81,385.373,45.999,315.013,45.999,208.695V106.008
			c73.963-19.8,142.8-47.524,210.001-84.573c65.497,36.06,137.826,65.185,209.997,84.569v102.691h0.001
			C465.998,315.013,414.188,385.373,370.723,425.677z"/>
	</g>
</g>
<g>
	<g>
		<path d="M443.791,115.369c-63.336-18.413-124.935-43.423-183.087-74.335c-2.936-1.561-6.459-1.561-9.397,0.005
			C193.07,72.078,131.471,97.093,68.22,115.388c-4.277,1.237-7.222,5.153-7.222,9.606v83.701c0,39.077,7.405,76.16,22.008,110.221
			c14.53,33.89,36.201,64.82,64.408,91.931c20.174,19.39,43.469,36.477,67.366,49.414c4.281,2.318,26.302,14.002,39.402,16.421
			c0.6,0.111,1.208,0.167,1.815,0.167c0.608,0,1.216-0.056,1.815-0.167c13.097-2.418,35.12-14.103,39.402-16.421
			c23.895-12.936,47.189-30.022,67.365-49.413c28.208-27.111,49.878-58.041,64.408-91.931
			c14.607-34.062,22.012-71.145,22.012-110.222v-83.723C450.999,120.525,448.061,116.611,443.791,115.369z M430.998,208.695
			c0,73.374-27.009,136.537-80.276,187.732c-18.897,18.162-40.691,34.153-63.027,46.245c-10.167,5.503-23.892,11.919-31.696,13.934
			c-7.807-2.015-21.531-8.43-31.696-13.934c-22.338-12.092-44.133-28.083-63.029-46.245
			c-53.267-51.195-80.275-114.357-80.275-187.732v-76.214c60.354-17.971,119.171-41.934,175.017-71.305
			c55.759,29.25,114.569,53.204,174.982,71.272V208.695z"/>
	</g>
</g>
<g>
	<g>
		<path d="M173.025,358.302l-0.243-0.262c-3.749-4.054-10.077-4.3-14.131-0.55s-4.301,10.077-0.55,14.131
			c0.009,0.011,0.087,0.095,0.123,0.133c1.969,2.146,4.665,3.238,7.371,3.238c2.383,0,4.775-0.847,6.686-2.567
			C176.386,368.729,176.719,362.406,173.025,358.302z"/>
	</g>
</g>
<g>
	<g>
		<path d="M226.963,403.693c-12.044-7.6-23.643-16.362-34.473-26.044c-4.116-3.681-10.439-3.328-14.12,0.791
			c-3.681,4.117-3.327,10.439,0.79,14.12c11.656,10.42,24.148,19.857,37.129,28.048c1.657,1.046,3.502,1.544,5.327,1.544
			c3.318,0,6.564-1.651,8.466-4.665C233.031,412.815,231.633,406.64,226.963,403.693z"/>
	</g>
</g>
<g>
	<g>
		<path d="M343.561,175.386c-5.895-5.896-13.757-9.142-22.134-9.142c-8.378,0-16.239,3.247-22.134,9.142l-63.535,63.536
			l-23.056-23.055c-5.895-5.896-13.755-9.143-22.133-9.143c-8.377,0-16.238,3.247-22.135,9.143
			c-12.204,12.204-12.204,32.063,0,44.267l45.191,45.189c5.895,5.896,13.756,9.143,22.133,9.143c8.378,0,16.239-3.247,22.134-9.143
			l85.669-85.669c5.896-5.895,9.142-13.756,9.142-22.134S349.457,181.282,343.561,175.386z M329.418,205.512l-85.668,85.669
			c-2.119,2.118-4.957,3.285-7.992,3.285c-3.035,0-5.874-1.166-7.992-3.285l-45.188-45.188c-2.118-2.118-3.284-4.956-3.284-7.991
			c-0.001-3.036,1.166-5.874,3.285-7.992c2.118-2.118,4.956-3.284,7.991-3.284c3.035,0,5.872,1.166,7.991,3.284l30.127,30.126
			c3.905,3.905,10.237,3.905,14.142,0l70.606-70.607c2.118-2.118,4.955-3.284,7.991-3.284c3.035,0,5.873,1.167,7.991,3.285
			c2.118,2.118,3.284,4.956,3.284,7.991C332.702,200.557,331.536,203.395,329.418,205.512z"/>
	</g>
</g>
<g>
</g>
<g>
</g>
<g>
</g>
<g>
</g>
<g>
</g>
<g>
</g>
<g>
</g>
<g>
</g>
<g>
</g>
<g>
</g>
<g>
</g>
<g>
</g>
<g>
</g>
<g>
</g>
<g>
</g>
</svg>
